<?xml version="1.0" encoding="utf-8" standalone="no"?>
<!DOCTYPE svg PUBLIC "-//W3C//DTD SVG 1.1//EN"
  "http://www.w3.org/Graphics/SVG/1.1/DTD/svg11.dtd">
<svg xmlns:xlink="http://www.w3.org/1999/xlink" width="576pt" height="288pt" viewBox="0 0 576 288" xmlns="http://www.w3.org/2000/svg" version="1.1">
 <metadata>
  <rdf:RDF xmlns:dc="http://purl.org/dc/elements/1.1/" xmlns:cc="http://creativecommons.org/ns#" xmlns:rdf="http://www.w3.org/1999/02/22-rdf-syntax-ns#">
   <cc:Work>
    <dc:type rdf:resource="http://purl.org/dc/dcmitype/StillImage"/>
    <dc:date>2026-02-09T12:31:27.604420</dc:date>
    <dc:format>image/svg+xml</dc:format>
    <dc:creator>
     <cc:Agent>
      <dc:title>Matplotlib v3.10.7, https://matplotlib.org/</dc:title>
     </cc:Agent>
    </dc:creator>
   </cc:Work>
  </rdf:RDF>
 </metadata>
 <defs>
  <style type="text/css">*{stroke-linejoin: round; stroke-linecap: butt}</style>
 </defs>
 <g id="figure_1">
  <g id="patch_1">
   <path d="M 0 288 
L 576 288 
L 576 0 
L 0 0 
z
" style="fill: #ffffff"/>
  </g>
  <g id="axes_1">
   <g id="patch_2">
    <path d="M 295.200003 44.64 
C 295.200003 44.64 295.200003 44.64 295.200003 44.64 
L 295.200003 145.440002 
z
" style="fill: #ff0000"/>
   </g>
   <g id="patch_3">
    <path d="M 295.199999 44.64 
C 284.331565 44.64 273.534319 46.39778 263.227113 49.845153 
C 252.919907 53.292527 243.237769 58.38433 234.55629 64.92304 
C 225.87481 71.46175 218.307727 79.361702 212.148564 88.316457 
C 205.989401 97.271208 201.318864 107.163441 198.318119 117.609418 
C 195.317373 128.055394 194.025753 138.918257 194.493332 149.776627 
C 194.960916 160.634999 197.181587 171.346639 201.069208 181.495988 
C 204.956828 191.645337 210.460472 201.099459 217.366629 209.491592 
C 224.272785 217.883726 232.490983 225.103934 241.702423 230.872135 
C 250.913867 236.640336 260.997874 240.880965 271.563276 243.429519 
C 282.128679 245.978074 293.037054 246.801166 303.865255 245.866863 
C 314.693456 244.93256 325.299616 242.253106 335.272313 237.932436 
C 345.24501 233.611766 354.453588 227.706495 362.540832 220.44569 
C 370.628076 213.184885 377.488066 204.66363 382.854628 195.212555 
C 388.22119 185.761479 392.024054 175.504365 394.1157 164.839101 
C 396.207347 154.173837 396.560374 143.24015 395.161076 132.462171 
C 393.761784 121.684192 390.628511 111.203128 385.882795 101.425548 
L 295.200003 145.440002 
z
" style="fill: #008000"/>
   </g>
   <g id="patch_4">
    <path d="M 385.882795 101.425548 
C 377.621519 84.404882 364.732743 70.049084 348.697596 60.007876 
C 332.662448 49.966668 314.119632 44.64 295.200017 44.64 
L 295.200003 145.440002 
z
" style="fill: #0000ff"/>
   </g>
   <g id="matplotlib.axis_1"/>
   <g id="matplotlib.axis_2"/>
   <g id="text_1">
    <!--  Linked Work product -->
    <g transform="translate(130.422978 242.174724) scale(0.1 -0.1)">
     <defs>
      <path id="DejaVuSans-20" transform="scale(0.015625)"/>
      <path id="DejaVuSans-4c" d="M 628 4666 
L 1259 4666 
L 1259 531 
L 3531 531 
L 3531 0 
L 628 0 
L 628 4666 
z
" transform="scale(0.015625)"/>
      <path id="DejaVuSans-69" d="M 603 3500 
L 1178 3500 
L 1178 0 
L 603 0 
L 603 3500 
z
M 603 4863 
L 1178 4863 
L 1178 4134 
L 603 4134 
L 603 4863 
z
" transform="scale(0.015625)"/>
      <path id="DejaVuSans-6e" d="M 3513 2113 
L 3513 0 
L 2938 0 
L 2938 2094 
Q 2938 2591 2744 2837 
Q 2550 3084 2163 3084 
Q 1697 3084 1428 2787 
Q 1159 2491 1159 1978 
L 1159 0 
L 581 0 
L 581 3500 
L 1159 3500 
L 1159 2956 
Q 1366 3272 1645 3428 
Q 1925 3584 2291 3584 
Q 2894 3584 3203 3211 
Q 3513 2838 3513 2113 
z
" transform="scale(0.015625)"/>
      <path id="DejaVuSans-6b" d="M 581 4863 
L 1159 4863 
L 1159 1991 
L 2875 3500 
L 3609 3500 
L 1753 1863 
L 3688 0 
L 2938 0 
L 1159 1709 
L 1159 0 
L 581 0 
L 581 4863 
z
" transform="scale(0.015625)"/>
      <path id="DejaVuSans-65" d="M 3597 1894 
L 3597 1613 
L 953 1613 
Q 991 1019 1311 708 
Q 1631 397 2203 397 
Q 2534 397 2845 478 
Q 3156 559 3463 722 
L 3463 178 
Q 3153 47 2828 -22 
Q 2503 -91 2169 -91 
Q 1331 -91 842 396 
Q 353 884 353 1716 
Q 353 2575 817 3079 
Q 1281 3584 2069 3584 
Q 2775 3584 3186 3129 
Q 3597 2675 3597 1894 
z
M 3022 2063 
Q 3016 2534 2758 2815 
Q 2500 3097 2075 3097 
Q 1594 3097 1305 2825 
Q 1016 2553 972 2059 
L 3022 2063 
z
" transform="scale(0.015625)"/>
      <path id="DejaVuSans-64" d="M 2906 2969 
L 2906 4863 
L 3481 4863 
L 3481 0 
L 2906 0 
L 2906 525 
Q 2725 213 2448 61 
Q 2172 -91 1784 -91 
Q 1150 -91 751 415 
Q 353 922 353 1747 
Q 353 2572 751 3078 
Q 1150 3584 1784 3584 
Q 2172 3584 2448 3432 
Q 2725 3281 2906 2969 
z
M 947 1747 
Q 947 1113 1208 752 
Q 1469 391 1925 391 
Q 2381 391 2643 752 
Q 2906 1113 2906 1747 
Q 2906 2381 2643 2742 
Q 2381 3103 1925 3103 
Q 1469 3103 1208 2742 
Q 947 2381 947 1747 
z
" transform="scale(0.015625)"/>
      <path id="DejaVuSans-57" d="M 213 4666 
L 850 4666 
L 1831 722 
L 2809 4666 
L 3519 4666 
L 4500 722 
L 5478 4666 
L 6119 4666 
L 4947 0 
L 4153 0 
L 3169 4050 
L 2175 0 
L 1381 0 
L 213 4666 
z
" transform="scale(0.015625)"/>
      <path id="DejaVuSans-6f" d="M 1959 3097 
Q 1497 3097 1228 2736 
Q 959 2375 959 1747 
Q 959 1119 1226 758 
Q 1494 397 1959 397 
Q 2419 397 2687 759 
Q 2956 1122 2956 1747 
Q 2956 2369 2687 2733 
Q 2419 3097 1959 3097 
z
M 1959 3584 
Q 2709 3584 3137 3096 
Q 3566 2609 3566 1747 
Q 3566 888 3137 398 
Q 2709 -91 1959 -91 
Q 1206 -91 779 398 
Q 353 888 353 1747 
Q 353 2609 779 3096 
Q 1206 3584 1959 3584 
z
" transform="scale(0.015625)"/>
      <path id="DejaVuSans-72" d="M 2631 2963 
Q 2534 3019 2420 3045 
Q 2306 3072 2169 3072 
Q 1681 3072 1420 2755 
Q 1159 2438 1159 1844 
L 1159 0 
L 581 0 
L 581 3500 
L 1159 3500 
L 1159 2956 
Q 1341 3275 1631 3429 
Q 1922 3584 2338 3584 
Q 2397 3584 2469 3576 
Q 2541 3569 2628 3553 
L 2631 2963 
z
" transform="scale(0.015625)"/>
      <path id="DejaVuSans-70" d="M 1159 525 
L 1159 -1331 
L 581 -1331 
L 581 3500 
L 1159 3500 
L 1159 2969 
Q 1341 3281 1617 3432 
Q 1894 3584 2278 3584 
Q 2916 3584 3314 3078 
Q 3713 2572 3713 1747 
Q 3713 922 3314 415 
Q 2916 -91 2278 -91 
Q 1894 -91 1617 61 
Q 1341 213 1159 525 
z
M 3116 1747 
Q 3116 2381 2855 2742 
Q 2594 3103 2138 3103 
Q 1681 3103 1420 2742 
Q 1159 2381 1159 1747 
Q 1159 1113 1420 752 
Q 1681 391 2138 391 
Q 2594 391 2855 752 
Q 3116 1113 3116 1747 
z
" transform="scale(0.015625)"/>
      <path id="DejaVuSans-75" d="M 544 1381 
L 544 3500 
L 1119 3500 
L 1119 1403 
Q 1119 906 1312 657 
Q 1506 409 1894 409 
Q 2359 409 2629 706 
Q 2900 1003 2900 1516 
L 2900 3500 
L 3475 3500 
L 3475 0 
L 2900 0 
L 2900 538 
Q 2691 219 2414 64 
Q 2138 -91 1772 -91 
Q 1169 -91 856 284 
Q 544 659 544 1381 
z
M 1991 3584 
L 1991 3584 
z
" transform="scale(0.015625)"/>
      <path id="DejaVuSans-63" d="M 3122 3366 
L 3122 2828 
Q 2878 2963 2633 3030 
Q 2388 3097 2138 3097 
Q 1578 3097 1268 2742 
Q 959 2388 959 1747 
Q 959 1106 1268 751 
Q 1578 397 2138 397 
Q 2388 397 2633 464 
Q 2878 531 3122 666 
L 3122 134 
Q 2881 22 2623 -34 
Q 2366 -91 2075 -91 
Q 1284 -91 818 406 
Q 353 903 353 1747 
Q 353 2603 823 3093 
Q 1294 3584 2113 3584 
Q 2378 3584 2631 3529 
Q 2884 3475 3122 3366 
z
" transform="scale(0.015625)"/>
      <path id="DejaVuSans-74" d="M 1172 4494 
L 1172 3500 
L 2356 3500 
L 2356 3053 
L 1172 3053 
L 1172 1153 
Q 1172 725 1289 603 
Q 1406 481 1766 481 
L 2356 481 
L 2356 0 
L 1766 0 
Q 1100 0 847 248 
Q 594 497 594 1153 
L 594 3053 
L 172 3053 
L 172 3500 
L 594 3500 
L 594 4494 
L 1172 4494 
z
" transform="scale(0.015625)"/>
     </defs>
     <use xlink:href="#DejaVuSans-20"/>
     <use xlink:href="#DejaVuSans-4c" transform="translate(31.787109 0)"/>
     <use xlink:href="#DejaVuSans-69" transform="translate(87.5 0)"/>
     <use xlink:href="#DejaVuSans-6e" transform="translate(115.283203 0)"/>
     <use xlink:href="#DejaVuSans-6b" transform="translate(178.662109 0)"/>
     <use xlink:href="#DejaVuSans-65" transform="translate(232.947266 0)"/>
     <use xlink:href="#DejaVuSans-64" transform="translate(294.470703 0)"/>
     <use xlink:href="#DejaVuSans-20" transform="translate(357.947266 0)"/>
     <use xlink:href="#DejaVuSans-57" transform="translate(389.734375 0)"/>
     <use xlink:href="#DejaVuSans-6f" transform="translate(482.736328 0)"/>
     <use xlink:href="#DejaVuSans-72" transform="translate(543.917969 0)"/>
     <use xlink:href="#DejaVuSans-6b" transform="translate(585.03125 0)"/>
     <use xlink:href="#DejaVuSans-20" transform="translate(642.941406 0)"/>
     <use xlink:href="#DejaVuSans-70" transform="translate(674.728516 0)"/>
     <use xlink:href="#DejaVuSans-72" transform="translate(738.205078 0)"/>
     <use xlink:href="#DejaVuSans-6f" transform="translate(777.068359 0)"/>
     <use xlink:href="#DejaVuSans-64" transform="translate(838.25 0)"/>
     <use xlink:href="#DejaVuSans-75" transform="translate(901.726562 0)"/>
     <use xlink:href="#DejaVuSans-63" transform="translate(965.105469 0)"/>
     <use xlink:href="#DejaVuSans-74" transform="translate(1020.085938 0)"/>
    </g>
   </g>
   <g id="text_2">
    <!-- 82.2% -->
    <g transform="translate(249.224581 194.427658) scale(0.08 -0.08)">
     <defs>
      <path id="DejaVuSans-Bold-38" d="M 2228 2088 
Q 1891 2088 1709 1903 
Q 1528 1719 1528 1375 
Q 1528 1031 1709 848 
Q 1891 666 2228 666 
Q 2563 666 2741 848 
Q 2919 1031 2919 1375 
Q 2919 1722 2741 1905 
Q 2563 2088 2228 2088 
z
M 1350 2484 
Q 925 2613 709 2878 
Q 494 3144 494 3541 
Q 494 4131 934 4440 
Q 1375 4750 2228 4750 
Q 3075 4750 3515 4442 
Q 3956 4134 3956 3541 
Q 3956 3144 3739 2878 
Q 3522 2613 3097 2484 
Q 3572 2353 3814 2058 
Q 4056 1763 4056 1313 
Q 4056 619 3595 264 
Q 3134 -91 2228 -91 
Q 1319 -91 855 264 
Q 391 619 391 1313 
Q 391 1763 633 2058 
Q 875 2353 1350 2484 
z
M 1631 3419 
Q 1631 3141 1786 2991 
Q 1941 2841 2228 2841 
Q 2509 2841 2662 2991 
Q 2816 3141 2816 3419 
Q 2816 3697 2662 3845 
Q 2509 3994 2228 3994 
Q 1941 3994 1786 3844 
Q 1631 3694 1631 3419 
z
" transform="scale(0.015625)"/>
      <path id="DejaVuSans-Bold-32" d="M 1844 884 
L 3897 884 
L 3897 0 
L 506 0 
L 506 884 
L 2209 2388 
Q 2438 2594 2547 2791 
Q 2656 2988 2656 3200 
Q 2656 3528 2436 3728 
Q 2216 3928 1850 3928 
Q 1569 3928 1234 3808 
Q 900 3688 519 3450 
L 519 4475 
Q 925 4609 1322 4679 
Q 1719 4750 2100 4750 
Q 2938 4750 3402 4381 
Q 3866 4013 3866 3353 
Q 3866 2972 3669 2642 
Q 3472 2313 2841 1759 
L 1844 884 
z
" transform="scale(0.015625)"/>
      <path id="DejaVuSans-Bold-2e" d="M 653 1209 
L 1778 1209 
L 1778 0 
L 653 0 
L 653 1209 
z
" transform="scale(0.015625)"/>
      <path id="DejaVuSans-Bold-25" d="M 4959 1925 
Q 4738 1925 4616 1733 
Q 4494 1541 4494 1184 
Q 4494 825 4614 633 
Q 4734 441 4959 441 
Q 5184 441 5303 633 
Q 5422 825 5422 1184 
Q 5422 1541 5301 1733 
Q 5181 1925 4959 1925 
z
M 4959 2450 
Q 5541 2450 5875 2112 
Q 6209 1775 6209 1184 
Q 6209 594 5875 251 
Q 5541 -91 4959 -91 
Q 4378 -91 4042 251 
Q 3706 594 3706 1184 
Q 3706 1772 4042 2111 
Q 4378 2450 4959 2450 
z
M 2094 -91 
L 1403 -91 
L 4319 4750 
L 5013 4750 
L 2094 -91 
z
M 1453 4750 
Q 2034 4750 2367 4411 
Q 2700 4072 2700 3481 
Q 2700 2891 2367 2550 
Q 2034 2209 1453 2209 
Q 872 2209 539 2550 
Q 206 2891 206 3481 
Q 206 4072 539 4411 
Q 872 4750 1453 4750 
z
M 1453 4225 
Q 1228 4225 1106 4031 
Q 984 3838 984 3481 
Q 984 3122 1106 2926 
Q 1228 2731 1453 2731 
Q 1678 2731 1798 2926 
Q 1919 3122 1919 3481 
Q 1919 3838 1797 4031 
Q 1675 4225 1453 4225 
z
" transform="scale(0.015625)"/>
     </defs>
     <use xlink:href="#DejaVuSans-Bold-38"/>
     <use xlink:href="#DejaVuSans-Bold-32" transform="translate(69.580078 0)"/>
     <use xlink:href="#DejaVuSans-Bold-2e" transform="translate(139.160156 0)"/>
     <use xlink:href="#DejaVuSans-Bold-32" transform="translate(177.148438 0)"/>
     <use xlink:href="#DejaVuSans-Bold-25" transform="translate(246.728516 0)"/>
    </g>
    <!-- (60) -->
    <g transform="translate(253.878956 203.385908) scale(0.08 -0.08)">
     <defs>
      <path id="DejaVuSans-Bold-28" d="M 2413 -844 
L 1484 -844 
Q 1006 -72 778 623 
Q 550 1319 550 2003 
Q 550 2688 779 3389 
Q 1009 4091 1484 4856 
L 2413 4856 
Q 2013 4116 1813 3408 
Q 1613 2700 1613 2009 
Q 1613 1319 1811 609 
Q 2009 -100 2413 -844 
z
" transform="scale(0.015625)"/>
      <path id="DejaVuSans-Bold-36" d="M 2316 2303 
Q 2000 2303 1842 2098 
Q 1684 1894 1684 1484 
Q 1684 1075 1842 870 
Q 2000 666 2316 666 
Q 2634 666 2792 870 
Q 2950 1075 2950 1484 
Q 2950 1894 2792 2098 
Q 2634 2303 2316 2303 
z
M 3803 4544 
L 3803 3681 
Q 3506 3822 3243 3889 
Q 2981 3956 2731 3956 
Q 2194 3956 1894 3657 
Q 1594 3359 1544 2772 
Q 1750 2925 1990 3001 
Q 2231 3078 2516 3078 
Q 3231 3078 3670 2659 
Q 4109 2241 4109 1563 
Q 4109 813 3618 361 
Q 3128 -91 2303 -91 
Q 1394 -91 895 523 
Q 397 1138 397 2266 
Q 397 3422 980 4083 
Q 1563 4744 2578 4744 
Q 2900 4744 3203 4694 
Q 3506 4644 3803 4544 
z
" transform="scale(0.015625)"/>
      <path id="DejaVuSans-Bold-30" d="M 2944 2338 
Q 2944 3213 2780 3570 
Q 2616 3928 2228 3928 
Q 1841 3928 1675 3570 
Q 1509 3213 1509 2338 
Q 1509 1453 1675 1090 
Q 1841 728 2228 728 
Q 2613 728 2778 1090 
Q 2944 1453 2944 2338 
z
M 4147 2328 
Q 4147 1169 3647 539 
Q 3147 -91 2228 -91 
Q 1306 -91 806 539 
Q 306 1169 306 2328 
Q 306 3491 806 4120 
Q 1306 4750 2228 4750 
Q 3147 4750 3647 4120 
Q 4147 3491 4147 2328 
z
" transform="scale(0.015625)"/>
      <path id="DejaVuSans-Bold-29" d="M 513 -844 
Q 913 -100 1113 609 
Q 1313 1319 1313 2009 
Q 1313 2700 1113 3408 
Q 913 4116 513 4856 
L 1441 4856 
Q 1916 4091 2145 3389 
Q 2375 2688 2375 2003 
Q 2375 1319 2147 623 
Q 1919 -72 1441 -844 
L 513 -844 
z
" transform="scale(0.015625)"/>
     </defs>
     <use xlink:href="#DejaVuSans-Bold-28"/>
     <use xlink:href="#DejaVuSans-Bold-36" transform="translate(45.703125 0)"/>
     <use xlink:href="#DejaVuSans-Bold-30" transform="translate(115.283203 0)"/>
     <use xlink:href="#DejaVuSans-Bold-29" transform="translate(184.863281 0)"/>
    </g>
   </g>
   <g id="text_3">
    <!--  Linked Work product To Multiple Workflows -->
    <g transform="translate(354.047355 54.224039) scale(0.1 -0.1)">
     <defs>
      <path id="DejaVuSans-54" d="M -19 4666 
L 3928 4666 
L 3928 4134 
L 2272 4134 
L 2272 0 
L 1638 0 
L 1638 4134 
L -19 4134 
L -19 4666 
z
" transform="scale(0.015625)"/>
      <path id="DejaVuSans-4d" d="M 628 4666 
L 1569 4666 
L 2759 1491 
L 3956 4666 
L 4897 4666 
L 4897 0 
L 4281 0 
L 4281 4097 
L 3078 897 
L 2444 897 
L 1241 4097 
L 1241 0 
L 628 0 
L 628 4666 
z
" transform="scale(0.015625)"/>
      <path id="DejaVuSans-6c" d="M 603 4863 
L 1178 4863 
L 1178 0 
L 603 0 
L 603 4863 
z
" transform="scale(0.015625)"/>
      <path id="DejaVuSans-66" d="M 2375 4863 
L 2375 4384 
L 1825 4384 
Q 1516 4384 1395 4259 
Q 1275 4134 1275 3809 
L 1275 3500 
L 2222 3500 
L 2222 3053 
L 1275 3053 
L 1275 0 
L 697 0 
L 697 3053 
L 147 3053 
L 147 3500 
L 697 3500 
L 697 3744 
Q 697 4328 969 4595 
Q 1241 4863 1831 4863 
L 2375 4863 
z
" transform="scale(0.015625)"/>
      <path id="DejaVuSans-77" d="M 269 3500 
L 844 3500 
L 1563 769 
L 2278 3500 
L 2956 3500 
L 3675 769 
L 4391 3500 
L 4966 3500 
L 4050 0 
L 3372 0 
L 2619 2869 
L 1863 0 
L 1184 0 
L 269 3500 
z
" transform="scale(0.015625)"/>
      <path id="DejaVuSans-73" d="M 2834 3397 
L 2834 2853 
Q 2591 2978 2328 3040 
Q 2066 3103 1784 3103 
Q 1356 3103 1142 2972 
Q 928 2841 928 2578 
Q 928 2378 1081 2264 
Q 1234 2150 1697 2047 
L 1894 2003 
Q 2506 1872 2764 1633 
Q 3022 1394 3022 966 
Q 3022 478 2636 193 
Q 2250 -91 1575 -91 
Q 1294 -91 989 -36 
Q 684 19 347 128 
L 347 722 
Q 666 556 975 473 
Q 1284 391 1588 391 
Q 1994 391 2212 530 
Q 2431 669 2431 922 
Q 2431 1156 2273 1281 
Q 2116 1406 1581 1522 
L 1381 1569 
Q 847 1681 609 1914 
Q 372 2147 372 2553 
Q 372 3047 722 3315 
Q 1072 3584 1716 3584 
Q 2034 3584 2315 3537 
Q 2597 3491 2834 3397 
z
" transform="scale(0.015625)"/>
     </defs>
     <use xlink:href="#DejaVuSans-20"/>
     <use xlink:href="#DejaVuSans-4c" transform="translate(31.787109 0)"/>
     <use xlink:href="#DejaVuSans-69" transform="translate(87.5 0)"/>
     <use xlink:href="#DejaVuSans-6e" transform="translate(115.283203 0)"/>
     <use xlink:href="#DejaVuSans-6b" transform="translate(178.662109 0)"/>
     <use xlink:href="#DejaVuSans-65" transform="translate(232.947266 0)"/>
     <use xlink:href="#DejaVuSans-64" transform="translate(294.470703 0)"/>
     <use xlink:href="#DejaVuSans-20" transform="translate(357.947266 0)"/>
     <use xlink:href="#DejaVuSans-57" transform="translate(389.734375 0)"/>
     <use xlink:href="#DejaVuSans-6f" transform="translate(482.736328 0)"/>
     <use xlink:href="#DejaVuSans-72" transform="translate(543.917969 0)"/>
     <use xlink:href="#DejaVuSans-6b" transform="translate(585.03125 0)"/>
     <use xlink:href="#DejaVuSans-20" transform="translate(642.941406 0)"/>
     <use xlink:href="#DejaVuSans-70" transform="translate(674.728516 0)"/>
     <use xlink:href="#DejaVuSans-72" transform="translate(738.205078 0)"/>
     <use xlink:href="#DejaVuSans-6f" transform="translate(777.068359 0)"/>
     <use xlink:href="#DejaVuSans-64" transform="translate(838.25 0)"/>
     <use xlink:href="#DejaVuSans-75" transform="translate(901.726562 0)"/>
     <use xlink:href="#DejaVuSans-63" transform="translate(965.105469 0)"/>
     <use xlink:href="#DejaVuSans-74" transform="translate(1020.085938 0)"/>
     <use xlink:href="#DejaVuSans-20" transform="translate(1059.294922 0)"/>
     <use xlink:href="#DejaVuSans-54" transform="translate(1091.082031 0)"/>
     <use xlink:href="#DejaVuSans-6f" transform="translate(1135.166016 0)"/>
     <use xlink:href="#DejaVuSans-20" transform="translate(1196.347656 0)"/>
     <use xlink:href="#DejaVuSans-4d" transform="translate(1228.134766 0)"/>
     <use xlink:href="#DejaVuSans-75" transform="translate(1314.414062 0)"/>
     <use xlink:href="#DejaVuSans-6c" transform="translate(1377.792969 0)"/>
     <use xlink:href="#DejaVuSans-74" transform="translate(1405.576172 0)"/>
     <use xlink:href="#DejaVuSans-69" transform="translate(1444.785156 0)"/>
     <use xlink:href="#DejaVuSans-70" transform="translate(1472.568359 0)"/>
     <use xlink:href="#DejaVuSans-6c" transform="translate(1536.044922 0)"/>
     <use xlink:href="#DejaVuSans-65" transform="translate(1563.828125 0)"/>
     <use xlink:href="#DejaVuSans-20" transform="translate(1625.351562 0)"/>
     <use xlink:href="#DejaVuSans-57" transform="translate(1657.138672 0)"/>
     <use xlink:href="#DejaVuSans-6f" transform="translate(1750.140625 0)"/>
     <use xlink:href="#DejaVuSans-72" transform="translate(1811.322266 0)"/>
     <use xlink:href="#DejaVuSans-6b" transform="translate(1852.435547 0)"/>
     <use xlink:href="#DejaVuSans-66" transform="translate(1910.345703 0)"/>
     <use xlink:href="#DejaVuSans-6c" transform="translate(1945.550781 0)"/>
     <use xlink:href="#DejaVuSans-6f" transform="translate(1973.333984 0)"/>
     <use xlink:href="#DejaVuSans-77" transform="translate(2034.515625 0)"/>
     <use xlink:href="#DejaVuSans-73" transform="translate(2116.302734 0)"/>
    </g>
   </g>
   <g id="text_4">
    <!-- 17.8% -->
    <g transform="translate(313.421684 91.909102) scale(0.08 -0.08)">
     <defs>
      <path id="DejaVuSans-Bold-31" d="M 750 831 
L 1813 831 
L 1813 3847 
L 722 3622 
L 722 4441 
L 1806 4666 
L 2950 4666 
L 2950 831 
L 4013 831 
L 4013 0 
L 750 0 
L 750 831 
z
" transform="scale(0.015625)"/>
      <path id="DejaVuSans-Bold-37" d="M 428 4666 
L 3944 4666 
L 3944 3988 
L 2125 0 
L 953 0 
L 2675 3781 
L 428 3781 
L 428 4666 
z
" transform="scale(0.015625)"/>
     </defs>
     <use xlink:href="#DejaVuSans-Bold-31"/>
     <use xlink:href="#DejaVuSans-Bold-37" transform="translate(69.580078 0)"/>
     <use xlink:href="#DejaVuSans-Bold-2e" transform="translate(139.160156 0)"/>
     <use xlink:href="#DejaVuSans-Bold-38" transform="translate(177.148438 0)"/>
     <use xlink:href="#DejaVuSans-Bold-25" transform="translate(246.728516 0)"/>
    </g>
    <!-- (13) -->
    <g transform="translate(318.076059 100.867352) scale(0.08 -0.08)">
     <defs>
      <path id="DejaVuSans-Bold-33" d="M 2981 2516 
Q 3453 2394 3698 2092 
Q 3944 1791 3944 1325 
Q 3944 631 3412 270 
Q 2881 -91 1863 -91 
Q 1503 -91 1142 -33 
Q 781 25 428 141 
L 428 1069 
Q 766 900 1098 814 
Q 1431 728 1753 728 
Q 2231 728 2486 893 
Q 2741 1059 2741 1369 
Q 2741 1688 2480 1852 
Q 2219 2016 1709 2016 
L 1228 2016 
L 1228 2791 
L 1734 2791 
Q 2188 2791 2409 2933 
Q 2631 3075 2631 3366 
Q 2631 3634 2415 3781 
Q 2200 3928 1806 3928 
Q 1516 3928 1219 3862 
Q 922 3797 628 3669 
L 628 4550 
Q 984 4650 1334 4700 
Q 1684 4750 2022 4750 
Q 2931 4750 3382 4451 
Q 3834 4153 3834 3553 
Q 3834 3144 3618 2883 
Q 3403 2622 2981 2516 
z
" transform="scale(0.015625)"/>
     </defs>
     <use xlink:href="#DejaVuSans-Bold-28"/>
     <use xlink:href="#DejaVuSans-Bold-31" transform="translate(45.703125 0)"/>
     <use xlink:href="#DejaVuSans-Bold-33" transform="translate(115.283203 0)"/>
     <use xlink:href="#DejaVuSans-Bold-29" transform="translate(184.863281 0)"/>
    </g>
   </g>
   <g id="text_5">
    <!-- The project work products contained in exactly one project workflow -->
    <g transform="translate(89.548125 28.56) scale(0.12 -0.12)">
     <defs>
      <path id="DejaVuSans-68" d="M 3513 2113 
L 3513 0 
L 2938 0 
L 2938 2094 
Q 2938 2591 2744 2837 
Q 2550 3084 2163 3084 
Q 1697 3084 1428 2787 
Q 1159 2491 1159 1978 
L 1159 0 
L 581 0 
L 581 4863 
L 1159 4863 
L 1159 2956 
Q 1366 3272 1645 3428 
Q 1925 3584 2291 3584 
Q 2894 3584 3203 3211 
Q 3513 2838 3513 2113 
z
" transform="scale(0.015625)"/>
      <path id="DejaVuSans-6a" d="M 603 3500 
L 1178 3500 
L 1178 -63 
Q 1178 -731 923 -1031 
Q 669 -1331 103 -1331 
L -116 -1331 
L -116 -844 
L 38 -844 
Q 366 -844 484 -692 
Q 603 -541 603 -63 
L 603 3500 
z
M 603 4863 
L 1178 4863 
L 1178 4134 
L 603 4134 
L 603 4863 
z
" transform="scale(0.015625)"/>
      <path id="DejaVuSans-61" d="M 2194 1759 
Q 1497 1759 1228 1600 
Q 959 1441 959 1056 
Q 959 750 1161 570 
Q 1363 391 1709 391 
Q 2188 391 2477 730 
Q 2766 1069 2766 1631 
L 2766 1759 
L 2194 1759 
z
M 3341 1997 
L 3341 0 
L 2766 0 
L 2766 531 
Q 2569 213 2275 61 
Q 1981 -91 1556 -91 
Q 1019 -91 701 211 
Q 384 513 384 1019 
Q 384 1609 779 1909 
Q 1175 2209 1959 2209 
L 2766 2209 
L 2766 2266 
Q 2766 2663 2505 2880 
Q 2244 3097 1772 3097 
Q 1472 3097 1187 3025 
Q 903 2953 641 2809 
L 641 3341 
Q 956 3463 1253 3523 
Q 1550 3584 1831 3584 
Q 2591 3584 2966 3190 
Q 3341 2797 3341 1997 
z
" transform="scale(0.015625)"/>
      <path id="DejaVuSans-78" d="M 3513 3500 
L 2247 1797 
L 3578 0 
L 2900 0 
L 1881 1375 
L 863 0 
L 184 0 
L 1544 1831 
L 300 3500 
L 978 3500 
L 1906 2253 
L 2834 3500 
L 3513 3500 
z
" transform="scale(0.015625)"/>
      <path id="DejaVuSans-79" d="M 2059 -325 
Q 1816 -950 1584 -1140 
Q 1353 -1331 966 -1331 
L 506 -1331 
L 506 -850 
L 844 -850 
Q 1081 -850 1212 -737 
Q 1344 -625 1503 -206 
L 1606 56 
L 191 3500 
L 800 3500 
L 1894 763 
L 2988 3500 
L 3597 3500 
L 2059 -325 
z
" transform="scale(0.015625)"/>
     </defs>
     <use xlink:href="#DejaVuSans-54"/>
     <use xlink:href="#DejaVuSans-68" transform="translate(61.083984 0)"/>
     <use xlink:href="#DejaVuSans-65" transform="translate(124.462891 0)"/>
     <use xlink:href="#DejaVuSans-20" transform="translate(185.986328 0)"/>
     <use xlink:href="#DejaVuSans-70" transform="translate(217.773438 0)"/>
     <use xlink:href="#DejaVuSans-72" transform="translate(281.25 0)"/>
     <use xlink:href="#DejaVuSans-6f" transform="translate(320.113281 0)"/>
     <use xlink:href="#DejaVuSans-6a" transform="translate(381.294922 0)"/>
     <use xlink:href="#DejaVuSans-65" transform="translate(409.078125 0)"/>
     <use xlink:href="#DejaVuSans-63" transform="translate(470.601562 0)"/>
     <use xlink:href="#DejaVuSans-74" transform="translate(525.582031 0)"/>
     <use xlink:href="#DejaVuSans-20" transform="translate(564.791016 0)"/>
     <use xlink:href="#DejaVuSans-77" transform="translate(596.578125 0)"/>
     <use xlink:href="#DejaVuSans-6f" transform="translate(678.365234 0)"/>
     <use xlink:href="#DejaVuSans-72" transform="translate(739.546875 0)"/>
     <use xlink:href="#DejaVuSans-6b" transform="translate(780.660156 0)"/>
     <use xlink:href="#DejaVuSans-20" transform="translate(838.570312 0)"/>
     <use xlink:href="#DejaVuSans-70" transform="translate(870.357422 0)"/>
     <use xlink:href="#DejaVuSans-72" transform="translate(933.833984 0)"/>
     <use xlink:href="#DejaVuSans-6f" transform="translate(972.697266 0)"/>
     <use xlink:href="#DejaVuSans-64" transform="translate(1033.878906 0)"/>
     <use xlink:href="#DejaVuSans-75" transform="translate(1097.355469 0)"/>
     <use xlink:href="#DejaVuSans-63" transform="translate(1160.734375 0)"/>
     <use xlink:href="#DejaVuSans-74" transform="translate(1215.714844 0)"/>
     <use xlink:href="#DejaVuSans-73" transform="translate(1254.923828 0)"/>
     <use xlink:href="#DejaVuSans-20" transform="translate(1307.023438 0)"/>
     <use xlink:href="#DejaVuSans-63" transform="translate(1338.810547 0)"/>
     <use xlink:href="#DejaVuSans-6f" transform="translate(1393.791016 0)"/>
     <use xlink:href="#DejaVuSans-6e" transform="translate(1454.972656 0)"/>
     <use xlink:href="#DejaVuSans-74" transform="translate(1518.351562 0)"/>
     <use xlink:href="#DejaVuSans-61" transform="translate(1557.560547 0)"/>
     <use xlink:href="#DejaVuSans-69" transform="translate(1618.839844 0)"/>
     <use xlink:href="#DejaVuSans-6e" transform="translate(1646.623047 0)"/>
     <use xlink:href="#DejaVuSans-65" transform="translate(1710.001953 0)"/>
     <use xlink:href="#DejaVuSans-64" transform="translate(1771.525391 0)"/>
     <use xlink:href="#DejaVuSans-20" transform="translate(1835.001953 0)"/>
     <use xlink:href="#DejaVuSans-69" transform="translate(1866.789062 0)"/>
     <use xlink:href="#DejaVuSans-6e" transform="translate(1894.572266 0)"/>
     <use xlink:href="#DejaVuSans-20" transform="translate(1957.951172 0)"/>
     <use xlink:href="#DejaVuSans-65" transform="translate(1989.738281 0)"/>
     <use xlink:href="#DejaVuSans-78" transform="translate(2049.511719 0)"/>
     <use xlink:href="#DejaVuSans-61" transform="translate(2108.691406 0)"/>
     <use xlink:href="#DejaVuSans-63" transform="translate(2169.970703 0)"/>
     <use xlink:href="#DejaVuSans-74" transform="translate(2224.951172 0)"/>
     <use xlink:href="#DejaVuSans-6c" transform="translate(2264.160156 0)"/>
     <use xlink:href="#DejaVuSans-79" transform="translate(2291.943359 0)"/>
     <use xlink:href="#DejaVuSans-20" transform="translate(2351.123047 0)"/>
     <use xlink:href="#DejaVuSans-6f" transform="translate(2382.910156 0)"/>
     <use xlink:href="#DejaVuSans-6e" transform="translate(2444.091797 0)"/>
     <use xlink:href="#DejaVuSans-65" transform="translate(2507.470703 0)"/>
     <use xlink:href="#DejaVuSans-20" transform="translate(2568.994141 0)"/>
     <use xlink:href="#DejaVuSans-70" transform="translate(2600.78125 0)"/>
     <use xlink:href="#DejaVuSans-72" transform="translate(2664.257812 0)"/>
     <use xlink:href="#DejaVuSans-6f" transform="translate(2703.121094 0)"/>
     <use xlink:href="#DejaVuSans-6a" transform="translate(2764.302734 0)"/>
     <use xlink:href="#DejaVuSans-65" transform="translate(2792.085938 0)"/>
     <use xlink:href="#DejaVuSans-63" transform="translate(2853.609375 0)"/>
     <use xlink:href="#DejaVuSans-74" transform="translate(2908.589844 0)"/>
     <use xlink:href="#DejaVuSans-20" transform="translate(2947.798828 0)"/>
     <use xlink:href="#DejaVuSans-77" transform="translate(2979.585938 0)"/>
     <use xlink:href="#DejaVuSans-6f" transform="translate(3061.373047 0)"/>
     <use xlink:href="#DejaVuSans-72" transform="translate(3122.554688 0)"/>
     <use xlink:href="#DejaVuSans-6b" transform="translate(3163.667969 0)"/>
     <use xlink:href="#DejaVuSans-66" transform="translate(3221.578125 0)"/>
     <use xlink:href="#DejaVuSans-6c" transform="translate(3256.783203 0)"/>
     <use xlink:href="#DejaVuSans-6f" transform="translate(3284.566406 0)"/>
     <use xlink:href="#DejaVuSans-77" transform="translate(3345.748047 0)"/>
    </g>
   </g>
   <g id="legend_1">
    <g id="patch_5">
     <path d="M 436.12 176.29625 
L 740.430938 176.29625 
Q 742.430938 176.29625 742.430938 174.29625 
L 742.430938 116.58375 
Q 742.430938 114.58375 740.430938 114.58375 
L 436.12 114.58375 
Q 434.12 114.58375 434.12 116.58375 
L 434.12 174.29625 
Q 434.12 176.29625 436.12 176.29625 
z
" style="fill: #ffffff; opacity: 0.8; stroke: #cccccc; stroke-linejoin: miter"/>
    </g>
    <g id="text_6">
     <!-- legend -->
     <g transform="translate(571.216094 126.182187) scale(0.1 -0.1)">
      <defs>
       <path id="DejaVuSans-67" d="M 2906 1791 
Q 2906 2416 2648 2759 
Q 2391 3103 1925 3103 
Q 1463 3103 1205 2759 
Q 947 2416 947 1791 
Q 947 1169 1205 825 
Q 1463 481 1925 481 
Q 2391 481 2648 825 
Q 2906 1169 2906 1791 
z
M 3481 434 
Q 3481 -459 3084 -895 
Q 2688 -1331 1869 -1331 
Q 1566 -1331 1297 -1286 
Q 1028 -1241 775 -1147 
L 775 -588 
Q 1028 -725 1275 -790 
Q 1522 -856 1778 -856 
Q 2344 -856 2625 -561 
Q 2906 -266 2906 331 
L 2906 616 
Q 2728 306 2450 153 
Q 2172 0 1784 0 
Q 1141 0 747 490 
Q 353 981 353 1791 
Q 353 2603 747 3093 
Q 1141 3584 1784 3584 
Q 2172 3584 2450 3431 
Q 2728 3278 2906 2969 
L 2906 3500 
L 3481 3500 
L 3481 434 
z
" transform="scale(0.015625)"/>
      </defs>
      <use xlink:href="#DejaVuSans-6c"/>
      <use xlink:href="#DejaVuSans-65" transform="translate(27.783203 0)"/>
      <use xlink:href="#DejaVuSans-67" transform="translate(89.306641 0)"/>
      <use xlink:href="#DejaVuSans-65" transform="translate(152.783203 0)"/>
      <use xlink:href="#DejaVuSans-6e" transform="translate(214.306641 0)"/>
      <use xlink:href="#DejaVuSans-64" transform="translate(277.685547 0)"/>
     </g>
    </g>
    <g id="patch_6">
     <path d="M 438.12 140.860312 
L 458.12 140.860312 
L 458.12 133.860312 
L 438.12 133.860312 
z
" style="fill: #ff0000"/>
    </g>
    <g id="text_7">
     <!-- Not-Linked 0.0% (0) -->
     <g transform="translate(466.12 140.860312) scale(0.1 -0.1)">
      <defs>
       <path id="DejaVuSans-4e" d="M 628 4666 
L 1478 4666 
L 3547 763 
L 3547 4666 
L 4159 4666 
L 4159 0 
L 3309 0 
L 1241 3903 
L 1241 0 
L 628 0 
L 628 4666 
z
" transform="scale(0.015625)"/>
       <path id="DejaVuSans-2d" d="M 313 2009 
L 1997 2009 
L 1997 1497 
L 313 1497 
L 313 2009 
z
" transform="scale(0.015625)"/>
       <path id="DejaVuSans-30" d="M 2034 4250 
Q 1547 4250 1301 3770 
Q 1056 3291 1056 2328 
Q 1056 1369 1301 889 
Q 1547 409 2034 409 
Q 2525 409 2770 889 
Q 3016 1369 3016 2328 
Q 3016 3291 2770 3770 
Q 2525 4250 2034 4250 
z
M 2034 4750 
Q 2819 4750 3233 4129 
Q 3647 3509 3647 2328 
Q 3647 1150 3233 529 
Q 2819 -91 2034 -91 
Q 1250 -91 836 529 
Q 422 1150 422 2328 
Q 422 3509 836 4129 
Q 1250 4750 2034 4750 
z
" transform="scale(0.015625)"/>
       <path id="DejaVuSans-2e" d="M 684 794 
L 1344 794 
L 1344 0 
L 684 0 
L 684 794 
z
" transform="scale(0.015625)"/>
       <path id="DejaVuSans-25" d="M 4653 2053 
Q 4381 2053 4226 1822 
Q 4072 1591 4072 1178 
Q 4072 772 4226 539 
Q 4381 306 4653 306 
Q 4919 306 5073 539 
Q 5228 772 5228 1178 
Q 5228 1588 5073 1820 
Q 4919 2053 4653 2053 
z
M 4653 2450 
Q 5147 2450 5437 2106 
Q 5728 1763 5728 1178 
Q 5728 594 5436 251 
Q 5144 -91 4653 -91 
Q 4153 -91 3862 251 
Q 3572 594 3572 1178 
Q 3572 1766 3864 2108 
Q 4156 2450 4653 2450 
z
M 1428 4353 
Q 1159 4353 1004 4120 
Q 850 3888 850 3481 
Q 850 3069 1003 2837 
Q 1156 2606 1428 2606 
Q 1700 2606 1854 2837 
Q 2009 3069 2009 3481 
Q 2009 3884 1853 4118 
Q 1697 4353 1428 4353 
z
M 4250 4750 
L 4750 4750 
L 1831 -91 
L 1331 -91 
L 4250 4750 
z
M 1428 4750 
Q 1922 4750 2215 4408 
Q 2509 4066 2509 3481 
Q 2509 2891 2217 2550 
Q 1925 2209 1428 2209 
Q 931 2209 642 2551 
Q 353 2894 353 3481 
Q 353 4063 643 4406 
Q 934 4750 1428 4750 
z
" transform="scale(0.015625)"/>
       <path id="DejaVuSans-28" d="M 1984 4856 
Q 1566 4138 1362 3434 
Q 1159 2731 1159 2009 
Q 1159 1288 1364 580 
Q 1569 -128 1984 -844 
L 1484 -844 
Q 1016 -109 783 600 
Q 550 1309 550 2009 
Q 550 2706 781 3412 
Q 1013 4119 1484 4856 
L 1984 4856 
z
" transform="scale(0.015625)"/>
       <path id="DejaVuSans-29" d="M 513 4856 
L 1013 4856 
Q 1481 4119 1714 3412 
Q 1947 2706 1947 2009 
Q 1947 1309 1714 600 
Q 1481 -109 1013 -844 
L 513 -844 
Q 928 -128 1133 580 
Q 1338 1288 1338 2009 
Q 1338 2731 1133 3434 
Q 928 4138 513 4856 
z
" transform="scale(0.015625)"/>
      </defs>
      <use xlink:href="#DejaVuSans-4e"/>
      <use xlink:href="#DejaVuSans-6f" transform="translate(74.804688 0)"/>
      <use xlink:href="#DejaVuSans-74" transform="translate(135.986328 0)"/>
      <use xlink:href="#DejaVuSans-2d" transform="translate(175.195312 0)"/>
      <use xlink:href="#DejaVuSans-4c" transform="translate(211.279297 0)"/>
      <use xlink:href="#DejaVuSans-69" transform="translate(266.992188 0)"/>
      <use xlink:href="#DejaVuSans-6e" transform="translate(294.775391 0)"/>
      <use xlink:href="#DejaVuSans-6b" transform="translate(358.154297 0)"/>
      <use xlink:href="#DejaVuSans-65" transform="translate(412.439453 0)"/>
      <use xlink:href="#DejaVuSans-64" transform="translate(473.962891 0)"/>
      <use xlink:href="#DejaVuSans-20" transform="translate(537.439453 0)"/>
      <use xlink:href="#DejaVuSans-30" transform="translate(569.226562 0)"/>
      <use xlink:href="#DejaVuSans-2e" transform="translate(632.849609 0)"/>
      <use xlink:href="#DejaVuSans-30" transform="translate(664.636719 0)"/>
      <use xlink:href="#DejaVuSans-25" transform="translate(728.259766 0)"/>
      <use xlink:href="#DejaVuSans-20" transform="translate(823.279297 0)"/>
      <use xlink:href="#DejaVuSans-28" transform="translate(855.066406 0)"/>
      <use xlink:href="#DejaVuSans-30" transform="translate(894.080078 0)"/>
      <use xlink:href="#DejaVuSans-29" transform="translate(957.703125 0)"/>
     </g>
    </g>
    <g id="patch_7">
     <path d="M 438.12 155.538437 
L 458.12 155.538437 
L 458.12 148.538437 
L 438.12 148.538437 
z
" style="fill: #008000"/>
    </g>
    <g id="text_8">
     <!-- Linked Work product 82.2% (60) -->
     <g transform="translate(466.12 155.538437) scale(0.1 -0.1)">
      <defs>
       <path id="DejaVuSans-38" d="M 2034 2216 
Q 1584 2216 1326 1975 
Q 1069 1734 1069 1313 
Q 1069 891 1326 650 
Q 1584 409 2034 409 
Q 2484 409 2743 651 
Q 3003 894 3003 1313 
Q 3003 1734 2745 1975 
Q 2488 2216 2034 2216 
z
M 1403 2484 
Q 997 2584 770 2862 
Q 544 3141 544 3541 
Q 544 4100 942 4425 
Q 1341 4750 2034 4750 
Q 2731 4750 3128 4425 
Q 3525 4100 3525 3541 
Q 3525 3141 3298 2862 
Q 3072 2584 2669 2484 
Q 3125 2378 3379 2068 
Q 3634 1759 3634 1313 
Q 3634 634 3220 271 
Q 2806 -91 2034 -91 
Q 1263 -91 848 271 
Q 434 634 434 1313 
Q 434 1759 690 2068 
Q 947 2378 1403 2484 
z
M 1172 3481 
Q 1172 3119 1398 2916 
Q 1625 2713 2034 2713 
Q 2441 2713 2670 2916 
Q 2900 3119 2900 3481 
Q 2900 3844 2670 4047 
Q 2441 4250 2034 4250 
Q 1625 4250 1398 4047 
Q 1172 3844 1172 3481 
z
" transform="scale(0.015625)"/>
       <path id="DejaVuSans-32" d="M 1228 531 
L 3431 531 
L 3431 0 
L 469 0 
L 469 531 
Q 828 903 1448 1529 
Q 2069 2156 2228 2338 
Q 2531 2678 2651 2914 
Q 2772 3150 2772 3378 
Q 2772 3750 2511 3984 
Q 2250 4219 1831 4219 
Q 1534 4219 1204 4116 
Q 875 4013 500 3803 
L 500 4441 
Q 881 4594 1212 4672 
Q 1544 4750 1819 4750 
Q 2544 4750 2975 4387 
Q 3406 4025 3406 3419 
Q 3406 3131 3298 2873 
Q 3191 2616 2906 2266 
Q 2828 2175 2409 1742 
Q 1991 1309 1228 531 
z
" transform="scale(0.015625)"/>
       <path id="DejaVuSans-36" d="M 2113 2584 
Q 1688 2584 1439 2293 
Q 1191 2003 1191 1497 
Q 1191 994 1439 701 
Q 1688 409 2113 409 
Q 2538 409 2786 701 
Q 3034 994 3034 1497 
Q 3034 2003 2786 2293 
Q 2538 2584 2113 2584 
z
M 3366 4563 
L 3366 3988 
Q 3128 4100 2886 4159 
Q 2644 4219 2406 4219 
Q 1781 4219 1451 3797 
Q 1122 3375 1075 2522 
Q 1259 2794 1537 2939 
Q 1816 3084 2150 3084 
Q 2853 3084 3261 2657 
Q 3669 2231 3669 1497 
Q 3669 778 3244 343 
Q 2819 -91 2113 -91 
Q 1303 -91 875 529 
Q 447 1150 447 2328 
Q 447 3434 972 4092 
Q 1497 4750 2381 4750 
Q 2619 4750 2861 4703 
Q 3103 4656 3366 4563 
z
" transform="scale(0.015625)"/>
      </defs>
      <use xlink:href="#DejaVuSans-4c"/>
      <use xlink:href="#DejaVuSans-69" transform="translate(55.712891 0)"/>
      <use xlink:href="#DejaVuSans-6e" transform="translate(83.496094 0)"/>
      <use xlink:href="#DejaVuSans-6b" transform="translate(146.875 0)"/>
      <use xlink:href="#DejaVuSans-65" transform="translate(201.160156 0)"/>
      <use xlink:href="#DejaVuSans-64" transform="translate(262.683594 0)"/>
      <use xlink:href="#DejaVuSans-20" transform="translate(326.160156 0)"/>
      <use xlink:href="#DejaVuSans-57" transform="translate(357.947266 0)"/>
      <use xlink:href="#DejaVuSans-6f" transform="translate(450.949219 0)"/>
      <use xlink:href="#DejaVuSans-72" transform="translate(512.130859 0)"/>
      <use xlink:href="#DejaVuSans-6b" transform="translate(553.244141 0)"/>
      <use xlink:href="#DejaVuSans-20" transform="translate(611.154297 0)"/>
      <use xlink:href="#DejaVuSans-70" transform="translate(642.941406 0)"/>
      <use xlink:href="#DejaVuSans-72" transform="translate(706.417969 0)"/>
      <use xlink:href="#DejaVuSans-6f" transform="translate(745.28125 0)"/>
      <use xlink:href="#DejaVuSans-64" transform="translate(806.462891 0)"/>
      <use xlink:href="#DejaVuSans-75" transform="translate(869.939453 0)"/>
      <use xlink:href="#DejaVuSans-63" transform="translate(933.318359 0)"/>
      <use xlink:href="#DejaVuSans-74" transform="translate(988.298828 0)"/>
      <use xlink:href="#DejaVuSans-20" transform="translate(1027.507812 0)"/>
      <use xlink:href="#DejaVuSans-38" transform="translate(1059.294922 0)"/>
      <use xlink:href="#DejaVuSans-32" transform="translate(1122.917969 0)"/>
      <use xlink:href="#DejaVuSans-2e" transform="translate(1186.541016 0)"/>
      <use xlink:href="#DejaVuSans-32" transform="translate(1218.328125 0)"/>
      <use xlink:href="#DejaVuSans-25" transform="translate(1281.951172 0)"/>
      <use xlink:href="#DejaVuSans-20" transform="translate(1376.970703 0)"/>
      <use xlink:href="#DejaVuSans-28" transform="translate(1408.757812 0)"/>
      <use xlink:href="#DejaVuSans-36" transform="translate(1447.771484 0)"/>
      <use xlink:href="#DejaVuSans-30" transform="translate(1511.394531 0)"/>
      <use xlink:href="#DejaVuSans-29" transform="translate(1575.017578 0)"/>
     </g>
    </g>
    <g id="patch_8">
     <path d="M 438.12 170.216563 
L 458.12 170.216563 
L 458.12 163.216563 
L 438.12 163.216563 
z
" style="fill: #0000ff"/>
    </g>
    <g id="text_9">
     <!-- Linked Work product To Multiple Workflows 17.8% (13) -->
     <g transform="translate(466.12 170.216563) scale(0.1 -0.1)">
      <defs>
       <path id="DejaVuSans-31" d="M 794 531 
L 1825 531 
L 1825 4091 
L 703 3866 
L 703 4441 
L 1819 4666 
L 2450 4666 
L 2450 531 
L 3481 531 
L 3481 0 
L 794 0 
L 794 531 
z
" transform="scale(0.015625)"/>
       <path id="DejaVuSans-37" d="M 525 4666 
L 3525 4666 
L 3525 4397 
L 1831 0 
L 1172 0 
L 2766 4134 
L 525 4134 
L 525 4666 
z
" transform="scale(0.015625)"/>
       <path id="DejaVuSans-33" d="M 2597 2516 
Q 3050 2419 3304 2112 
Q 3559 1806 3559 1356 
Q 3559 666 3084 287 
Q 2609 -91 1734 -91 
Q 1441 -91 1130 -33 
Q 819 25 488 141 
L 488 750 
Q 750 597 1062 519 
Q 1375 441 1716 441 
Q 2309 441 2620 675 
Q 2931 909 2931 1356 
Q 2931 1769 2642 2001 
Q 2353 2234 1838 2234 
L 1294 2234 
L 1294 2753 
L 1863 2753 
Q 2328 2753 2575 2939 
Q 2822 3125 2822 3475 
Q 2822 3834 2567 4026 
Q 2313 4219 1838 4219 
Q 1578 4219 1281 4162 
Q 984 4106 628 3988 
L 628 4550 
Q 988 4650 1302 4700 
Q 1616 4750 1894 4750 
Q 2613 4750 3031 4423 
Q 3450 4097 3450 3541 
Q 3450 3153 3228 2886 
Q 3006 2619 2597 2516 
z
" transform="scale(0.015625)"/>
      </defs>
      <use xlink:href="#DejaVuSans-4c"/>
      <use xlink:href="#DejaVuSans-69" transform="translate(55.712891 0)"/>
      <use xlink:href="#DejaVuSans-6e" transform="translate(83.496094 0)"/>
      <use xlink:href="#DejaVuSans-6b" transform="translate(146.875 0)"/>
      <use xlink:href="#DejaVuSans-65" transform="translate(201.160156 0)"/>
      <use xlink:href="#DejaVuSans-64" transform="translate(262.683594 0)"/>
      <use xlink:href="#DejaVuSans-20" transform="translate(326.160156 0)"/>
      <use xlink:href="#DejaVuSans-57" transform="translate(357.947266 0)"/>
      <use xlink:href="#DejaVuSans-6f" transform="translate(450.949219 0)"/>
      <use xlink:href="#DejaVuSans-72" transform="translate(512.130859 0)"/>
      <use xlink:href="#DejaVuSans-6b" transform="translate(553.244141 0)"/>
      <use xlink:href="#DejaVuSans-20" transform="translate(611.154297 0)"/>
      <use xlink:href="#DejaVuSans-70" transform="translate(642.941406 0)"/>
      <use xlink:href="#DejaVuSans-72" transform="translate(706.417969 0)"/>
      <use xlink:href="#DejaVuSans-6f" transform="translate(745.28125 0)"/>
      <use xlink:href="#DejaVuSans-64" transform="translate(806.462891 0)"/>
      <use xlink:href="#DejaVuSans-75" transform="translate(869.939453 0)"/>
      <use xlink:href="#DejaVuSans-63" transform="translate(933.318359 0)"/>
      <use xlink:href="#DejaVuSans-74" transform="translate(988.298828 0)"/>
      <use xlink:href="#DejaVuSans-20" transform="translate(1027.507812 0)"/>
      <use xlink:href="#DejaVuSans-54" transform="translate(1059.294922 0)"/>
      <use xlink:href="#DejaVuSans-6f" transform="translate(1103.378906 0)"/>
      <use xlink:href="#DejaVuSans-20" transform="translate(1164.560547 0)"/>
      <use xlink:href="#DejaVuSans-4d" transform="translate(1196.347656 0)"/>
      <use xlink:href="#DejaVuSans-75" transform="translate(1282.626953 0)"/>
      <use xlink:href="#DejaVuSans-6c" transform="translate(1346.005859 0)"/>
      <use xlink:href="#DejaVuSans-74" transform="translate(1373.789062 0)"/>
      <use xlink:href="#DejaVuSans-69" transform="translate(1412.998047 0)"/>
      <use xlink:href="#DejaVuSans-70" transform="translate(1440.78125 0)"/>
      <use xlink:href="#DejaVuSans-6c" transform="translate(1504.257812 0)"/>
      <use xlink:href="#DejaVuSans-65" transform="translate(1532.041016 0)"/>
      <use xlink:href="#DejaVuSans-20" transform="translate(1593.564453 0)"/>
      <use xlink:href="#DejaVuSans-57" transform="translate(1625.351562 0)"/>
      <use xlink:href="#DejaVuSans-6f" transform="translate(1718.353516 0)"/>
      <use xlink:href="#DejaVuSans-72" transform="translate(1779.535156 0)"/>
      <use xlink:href="#DejaVuSans-6b" transform="translate(1820.648438 0)"/>
      <use xlink:href="#DejaVuSans-66" transform="translate(1878.558594 0)"/>
      <use xlink:href="#DejaVuSans-6c" transform="translate(1913.763672 0)"/>
      <use xlink:href="#DejaVuSans-6f" transform="translate(1941.546875 0)"/>
      <use xlink:href="#DejaVuSans-77" transform="translate(2002.728516 0)"/>
      <use xlink:href="#DejaVuSans-73" transform="translate(2084.515625 0)"/>
      <use xlink:href="#DejaVuSans-20" transform="translate(2136.615234 0)"/>
      <use xlink:href="#DejaVuSans-31" transform="translate(2168.402344 0)"/>
      <use xlink:href="#DejaVuSans-37" transform="translate(2232.025391 0)"/>
      <use xlink:href="#DejaVuSans-2e" transform="translate(2295.648438 0)"/>
      <use xlink:href="#DejaVuSans-38" transform="translate(2327.435547 0)"/>
      <use xlink:href="#DejaVuSans-25" transform="translate(2391.058594 0)"/>
      <use xlink:href="#DejaVuSans-20" transform="translate(2486.078125 0)"/>
      <use xlink:href="#DejaVuSans-28" transform="translate(2517.865234 0)"/>
      <use xlink:href="#DejaVuSans-31" transform="translate(2556.878906 0)"/>
      <use xlink:href="#DejaVuSans-33" transform="translate(2620.501953 0)"/>
      <use xlink:href="#DejaVuSans-29" transform="translate(2684.125 0)"/>
     </g>
    </g>
   </g>
  </g>
 </g>
</svg>
