<svg xmlns="http://www.w3.org/2000/svg" xmlns:xlink="http://www.w3.org/1999/xlink" contentStyleType="text/css" data-diagram-type="DESCRIPTION" height="266px" preserveAspectRatio="none" style="width:825px;height:266px;background:#FFFFFF;" version="1.1" viewBox="0 0 825 266" width="825px" zoomAndPan="magnify"><defs/><g><!--entity DocsSource--><g id="elem_DocsSource"><rect fill="#F1F1F1" height="32.2969" rx="2.5" ry="2.5" style="stroke:#181818;stroke-width:0.5;" width="184.0615" x="220" y="11"/><rect fill="#F1F1F1" height="32.2969" rx="2.5" ry="2.5" style="stroke:#181818;stroke-width:0.5;" width="184.0615" x="216" y="7"/><text fill="#000000" font-family="sans-serif" font-size="14" lengthAdjust="spacing" textLength="168.0615" x="224" y="27.9951">Documentation Sources</text></g><!--entity NeedsTargets--><g id="elem_NeedsTargets"><rect fill="#F1F1F1" height="32.2969" rx="2.5" ry="2.5" style="stroke:#181818;stroke-width:0.5;" width="156.458" x="234" y="82"/><rect fill="#F1F1F1" height="32.2969" rx="2.5" ry="2.5" style="stroke:#181818;stroke-width:0.5;" width="156.458" x="230" y="78"/><text fill="#000000" font-family="sans-serif" font-size="14" lengthAdjust="spacing" textLength="140.458" x="238" y="98.9951">Needs JSON Targets</text></g><!--entity SourceLinks--><g id="elem_SourceLinks"><rect fill="#F1F1F1" height="32.2969" rx="2.5" ry="2.5" style="stroke:#181818;stroke-width:0.5;" width="145.0967" x="11" y="155"/><rect fill="#F1F1F1" height="32.2969" rx="2.5" ry="2.5" style="stroke:#181818;stroke-width:0.5;" width="145.0967" x="7" y="151"/><text fill="#000000" font-family="sans-serif" font-size="14" lengthAdjust="spacing" textLength="129.0967" x="15" y="171.9951">Source Code Links</text></g><!--entity Merge--><g id="elem_Merge"><rect fill="#F1F1F1" height="39.2969" rx="2.5" ry="2.5" style="stroke:#181818;stroke-width:0.5;" width="111.8262" x="254" y="149.5"/><polygon fill="#F1F1F1" points="348.8262,154.5,348.8262,168.5,360.8262,168.5,360.8262,160.5,354.8262,154.5,348.8262,154.5" style="stroke:#181818;stroke-width:0.5;"/><line style="stroke:#181818;stroke-width:0.5;" x1="354.8262" x2="354.8262" y1="154.5" y2="160.5"/><line style="stroke:#181818;stroke-width:0.5;" x1="360.8262" x2="354.8262" y1="160.5" y2="160.5"/><text fill="#000000" font-family="sans-serif" font-size="14" lengthAdjust="spacing" textLength="81.8262" x="264" y="175.4951">Merge Data</text></g><!--entity Sphinx--><g id="elem_Sphinx"><polygon fill="#F1F1F1" points="464,115,621.4561,115,631.4561,133.1484,621.4561,151.2969,464,151.2969,474,133.1484" style="stroke:#181818;stroke-width:0.5;"/><text fill="#000000" font-family="sans-serif" font-size="14" lengthAdjust="spacing" textLength="127.4561" x="484" y="137.9951">Sphinx Processing</text></g><!--entity HTMLOutput--><g id="elem_HTMLOutput"><rect fill="#F1F1F1" height="39.2969" rx="2.5" ry="2.5" style="stroke:#181818;stroke-width:0.5;" width="122.0391" x="691" y="113.5"/><polygon fill="#F1F1F1" points="796.0391,118.5,796.0391,132.5,808.0391,132.5,808.0391,124.5,802.0391,118.5,796.0391,118.5" style="stroke:#181818;stroke-width:0.5;"/><line style="stroke:#181818;stroke-width:0.5;" x1="802.0391" x2="802.0391" y1="118.5" y2="124.5"/><line style="stroke:#181818;stroke-width:0.5;" x1="808.0391" x2="802.0391" y1="124.5" y2="124.5"/><text fill="#000000" font-family="sans-serif" font-size="14" lengthAdjust="spacing" textLength="92.0391" x="701" y="139.4951">HTML Output</text></g><!--entity SCoreExt--><g id="elem_SCoreExt"><rect fill="#F1F1F1" height="32.2969" rx="2.5" ry="2.5" style="stroke:#181818;stroke-width:0.5;" width="149.5469" x="237" y="228"/><rect fill="#F1F1F1" height="32.2969" rx="2.5" ry="2.5" style="stroke:#181818;stroke-width:0.5;" width="149.5469" x="233" y="224"/><text fill="#000000" font-family="sans-serif" font-size="14" lengthAdjust="spacing" textLength="133.5469" x="241" y="244.9951">S-CORE extensions</text></g><!--link DocsSource to Sphinx--><g id="link_DocsSource_Sphinx"><path d="M362.1,43.04 C375.83,48.21 390.59,54.07 404,60 C442.51,77.04 480.0754,96.6201 508.6254,112.1001 " fill="transparent" id="DocsSource-to-Sphinx" style="stroke:#181818;stroke-width:1;"/><polygon fill="#181818" points="513.9,114.96,507.8948,107.1538,509.5045,112.5767,504.0816,114.1865,513.9,114.96" style="stroke:#181818;stroke-width:1;"/></g><!--link NeedsTargets to Sphinx--><g id="link_NeedsTargets_Sphinx"><path d="M390.07,108.42 C413.72,112.14 433.793,115.2872 457.683,119.0472 " fill="transparent" id="NeedsTargets-to-Sphinx" style="stroke:#181818;stroke-width:1;"/><polygon fill="#181818" points="463.61,119.98,455.3413,114.6294,458.6708,119.2026,454.0975,122.5321,463.61,119.98" style="stroke:#181818;stroke-width:1;"/></g><!--link SCoreExt to Sphinx--><g id="link_SCoreExt_Sphinx"><path d="M360.62,223.89 C374.76,218.43 390.1,212.23 404,206 C442.3,188.83 479.7195,169.369 508.2995,153.949 " fill="transparent" id="SCoreExt-to-Sphinx" style="stroke:#181818;stroke-width:1;"/><polygon fill="#181818" points="513.58,151.1,503.76,151.8532,509.1796,153.4742,507.5587,158.8938,513.58,151.1" style="stroke:#181818;stroke-width:1;"/></g><!--link SourceLinks to Merge--><g id="link_SourceLinks_Merge"><path d="M156.04,169 C187.81,169 218.37,169 247.77,169 " fill="transparent" id="SourceLinks-to-Merge" style="stroke:#181818;stroke-width:1;"/><polygon fill="#181818" points="253.77,169,244.77,165,248.77,169,244.77,173,253.77,169" style="stroke:#181818;stroke-width:1;"/></g><!--link Merge to Sphinx--><g id="link_Merge_Sphinx"><path d="M366.21,160.56 C395.31,156.11 425.649,151.4772 458.009,146.5272 " fill="transparent" id="Merge-to-Sphinx" style="stroke:#181818;stroke-width:1;"/><polygon fill="#181818" points="463.94,145.62,454.4387,143.0269,458.9975,146.376,455.6483,150.9349,463.94,145.62" style="stroke:#181818;stroke-width:1;"/></g><!--link Sphinx to HTMLOutput--><g id="link_Sphinx_HTMLOutput"><path d="M631.16,133 C651.17,133 666.19,133 684.93,133 " fill="transparent" id="Sphinx-to-HTMLOutput" style="stroke:#181818;stroke-width:1;"/><polygon fill="#181818" points="690.93,133,681.93,129,685.93,133,681.93,137,690.93,133" style="stroke:#181818;stroke-width:1;"/></g><!--SRC=[NP31pi8W48JlFCMazxw2bsfYZDe_wWiGkbPYVsXWc_JnBQn6wetvc1rs6EZEO8zW-mUZiu4CM- -KCduOv1nHRRsP_icnJXfNFmL3iOAEM6wYwFN4cQYBE5pRCsuwzCHYp_WDrWCIWiPtXADrJ_4BpLhfmFQk3QCwqHA0hMQTJLcgCVXbgPGqFgoRyIVQkbwICYr2zhVJ4Ut4uyJPaBJ8dyNgfhtiG3EJYmb9NEC3xMPMwli3gElDvvsoQCa_SolsBPcnz96IfKrw9LBi-W80]--></g></svg>