<svg xmlns="http://www.w3.org/2000/svg" xmlns:xlink="http://www.w3.org/1999/xlink" contentStyleType="text/css" data-diagram-type="CLASS" height="322px" preserveAspectRatio="none" style="width:6193px;height:322px;background:#FFFFFF;" version="1.1" viewBox="0 0 6193 322" width="6193px" zoomAndPan="magnify"><defs/><g><!--entity Feature_User--><g id="elem_Feature_User"><ellipse cx="3157.6685" cy="14" fill="#F1F1F1" rx="8" ry="8" style="stroke:#181818;stroke-width:0.5;"/><path d="M3157.6685,22 L3157.6685,49 M3144.6685,30 L3170.6685,30 M3157.6685,49 L3144.6685,64 M3157.6685,49 L3170.6685,64 " fill="transparent" style="stroke:#181818;stroke-width:0.5;"/><text fill="#000000" font-family="sans-serif" font-size="14" lengthAdjust="spacing" textLength="90.3369" x="3112.5" y="78.4951">Feature User</text></g><!--class comp_arc_sta__baselibs__json--><g id="elem_comp_arc_sta__baselibs__json"><rect fill="#F1F1F1" height="40" id="comp_arc_sta__baselibs__json" rx="2.5" ry="2.5" style="stroke:#181818;stroke-width:0.5;" width="242.1367" x="5944.5" y="275.5"/><ellipse cx="5959.5" cy="291.5" fill="#ADD1B2" rx="11" ry="11" style="stroke:#181818;stroke-width:1;"/><path d="M5962.4688,297.1406 Q5961.8906,297.4375 5961.25,297.5781 Q5960.6094,297.7344 5959.9063,297.7344 Q5957.4063,297.7344 5956.0781,296.0938 Q5954.7656,294.4375 5954.7656,291.3125 Q5954.7656,288.1875 5956.0781,286.5313 Q5957.4063,284.875 5959.9063,284.875 Q5960.6094,284.875 5961.25,285.0313 Q5961.9063,285.1875 5962.4688,285.4844 L5962.4688,288.2031 Q5961.8438,287.625 5961.25,287.3594 Q5960.6563,287.0781 5960.0313,287.0781 Q5958.6875,287.0781 5958,288.1563 Q5957.3125,289.2188 5957.3125,291.3125 Q5957.3125,293.4063 5958,294.4844 Q5958.6875,295.5469 5960.0313,295.5469 Q5960.6563,295.5469 5961.25,295.2813 Q5961.8438,295 5962.4688,294.4219 L5962.4688,297.1406 Z " fill="#000000"/><text fill="#000000" font-family="sans-serif" font-size="14" lengthAdjust="spacing" textLength="210.1367" x="5973.5" y="296.3467">comp_arc_sta__baselibs__json</text><line style="stroke:#181818;stroke-width:0.5;" x1="5945.5" x2="6185.6367" y1="307.5" y2="307.5"/></g><!--class logic_arc_int__baselibs__json--><g id="elem_logic_arc_int__baselibs__json"><rect fill="#F1F1F1" height="40" id="logic_arc_int__baselibs__json" rx="2.5" ry="2.5" style="stroke:#181818;stroke-width:0.5;" width="233.168" x="5949" y="158.5"/><ellipse cx="5964" cy="174.5" fill="#ADD1B2" rx="11" ry="11" style="stroke:#181818;stroke-width:1;"/><path d="M5966.9688,180.1406 Q5966.3906,180.4375 5965.75,180.5781 Q5965.1094,180.7344 5964.4063,180.7344 Q5961.9063,180.7344 5960.5781,179.0938 Q5959.2656,177.4375 5959.2656,174.3125 Q5959.2656,171.1875 5960.5781,169.5313 Q5961.9063,167.875 5964.4063,167.875 Q5965.1094,167.875 5965.75,168.0313 Q5966.4063,168.1875 5966.9688,168.4844 L5966.9688,171.2031 Q5966.3438,170.625 5965.75,170.3594 Q5965.1563,170.0781 5964.5313,170.0781 Q5963.1875,170.0781 5962.5,171.1563 Q5961.8125,172.2188 5961.8125,174.3125 Q5961.8125,176.4063 5962.5,177.4844 Q5963.1875,178.5469 5964.5313,178.5469 Q5965.1563,178.5469 5965.75,178.2813 Q5966.3438,178 5966.9688,177.4219 L5966.9688,180.1406 Z " fill="#000000"/><text fill="#000000" font-family="sans-serif" font-size="14" lengthAdjust="spacing" textLength="201.168" x="5978" y="179.3467">logic_arc_int__baselibs__json</text><line style="stroke:#181818;stroke-width:0.5;" x1="5950" x2="6181.168" y1="190.5" y2="190.5"/></g><!--class comp_arc_sta__baselibs__concurrency--><g id="elem_comp_arc_sta__baselibs__concurrency"><rect fill="#F1F1F1" height="40" id="comp_arc_sta__baselibs__concurrency" rx="2.5" ry="2.5" style="stroke:#181818;stroke-width:0.5;" width="300.2012" x="2459.5" y="275.5"/><ellipse cx="2474.5" cy="291.5" fill="#ADD1B2" rx="11" ry="11" style="stroke:#181818;stroke-width:1;"/><path d="M2477.4688,297.1406 Q2476.8906,297.4375 2476.25,297.5781 Q2475.6094,297.7344 2474.9063,297.7344 Q2472.4063,297.7344 2471.0781,296.0938 Q2469.7656,294.4375 2469.7656,291.3125 Q2469.7656,288.1875 2471.0781,286.5313 Q2472.4063,284.875 2474.9063,284.875 Q2475.6094,284.875 2476.25,285.0313 Q2476.9063,285.1875 2477.4688,285.4844 L2477.4688,288.2031 Q2476.8438,287.625 2476.25,287.3594 Q2475.6563,287.0781 2475.0313,287.0781 Q2473.6875,287.0781 2473,288.1563 Q2472.3125,289.2188 2472.3125,291.3125 Q2472.3125,293.4063 2473,294.4844 Q2473.6875,295.5469 2475.0313,295.5469 Q2475.6563,295.5469 2476.25,295.2813 Q2476.8438,295 2477.4688,294.4219 L2477.4688,297.1406 Z " fill="#000000"/><text fill="#000000" font-family="sans-serif" font-size="14" lengthAdjust="spacing" textLength="268.2012" x="2488.5" y="296.3467">comp_arc_sta__baselibs__concurrency</text><line style="stroke:#181818;stroke-width:0.5;" x1="2460.5" x2="2758.7012" y1="307.5" y2="307.5"/></g><!--class logic_arc_int__baselibs__shared_future--><g id="elem_logic_arc_int__baselibs__shared_future"><rect fill="#F1F1F1" height="40" id="logic_arc_int__baselibs__shared_future" rx="2.5" ry="2.5" style="stroke:#181818;stroke-width:0.5;" width="302.0811" x="2083.5" y="158.5"/><ellipse cx="2098.5" cy="174.5" fill="#ADD1B2" rx="11" ry="11" style="stroke:#181818;stroke-width:1;"/><path d="M2101.4688,180.1406 Q2100.8906,180.4375 2100.25,180.5781 Q2099.6094,180.7344 2098.9063,180.7344 Q2096.4063,180.7344 2095.0781,179.0938 Q2093.7656,177.4375 2093.7656,174.3125 Q2093.7656,171.1875 2095.0781,169.5313 Q2096.4063,167.875 2098.9063,167.875 Q2099.6094,167.875 2100.25,168.0313 Q2100.9063,168.1875 2101.4688,168.4844 L2101.4688,171.2031 Q2100.8438,170.625 2100.25,170.3594 Q2099.6563,170.0781 2099.0313,170.0781 Q2097.6875,170.0781 2097,171.1563 Q2096.3125,172.2188 2096.3125,174.3125 Q2096.3125,176.4063 2097,177.4844 Q2097.6875,178.5469 2099.0313,178.5469 Q2099.6563,178.5469 2100.25,178.2813 Q2100.8438,178 2101.4688,177.4219 L2101.4688,180.1406 Z " fill="#000000"/><text fill="#000000" font-family="sans-serif" font-size="14" lengthAdjust="spacing" textLength="270.0811" x="2112.5" y="179.3467">logic_arc_int__baselibs__shared_future</text><line style="stroke:#181818;stroke-width:0.5;" x1="2084.5" x2="2384.5811" y1="190.5" y2="190.5"/></g><!--class comp_arc_sta__baselibs__utils--><g id="elem_comp_arc_sta__baselibs__utils"><rect fill="#F1F1F1" height="40" id="comp_arc_sta__baselibs__utils" rx="2.5" ry="2.5" style="stroke:#181818;stroke-width:0.5;" width="242.9502" x="5465" y="275.5"/><ellipse cx="5480" cy="291.5" fill="#ADD1B2" rx="11" ry="11" style="stroke:#181818;stroke-width:1;"/><path d="M5482.9688,297.1406 Q5482.3906,297.4375 5481.75,297.5781 Q5481.1094,297.7344 5480.4063,297.7344 Q5477.9063,297.7344 5476.5781,296.0938 Q5475.2656,294.4375 5475.2656,291.3125 Q5475.2656,288.1875 5476.5781,286.5313 Q5477.9063,284.875 5480.4063,284.875 Q5481.1094,284.875 5481.75,285.0313 Q5482.4063,285.1875 5482.9688,285.4844 L5482.9688,288.2031 Q5482.3438,287.625 5481.75,287.3594 Q5481.1563,287.0781 5480.5313,287.0781 Q5479.1875,287.0781 5478.5,288.1563 Q5477.8125,289.2188 5477.8125,291.3125 Q5477.8125,293.4063 5478.5,294.4844 Q5479.1875,295.5469 5480.5313,295.5469 Q5481.1563,295.5469 5481.75,295.2813 Q5482.3438,295 5482.9688,294.4219 L5482.9688,297.1406 Z " fill="#000000"/><text fill="#000000" font-family="sans-serif" font-size="14" lengthAdjust="spacing" textLength="210.9502" x="5494" y="296.3467">comp_arc_sta__baselibs__utils</text><line style="stroke:#181818;stroke-width:0.5;" x1="5466" x2="5706.9502" y1="307.5" y2="307.5"/></g><!--class logic_arc_int__baselibs__utils_base64--><g id="elem_logic_arc_int__baselibs__utils_base64"><rect fill="#F1F1F1" height="40" id="logic_arc_int__baselibs__utils_base64" rx="2.5" ry="2.5" style="stroke:#181818;stroke-width:0.5;" width="292.1689" x="5271.5" y="158.5"/><ellipse cx="5286.5" cy="174.5" fill="#ADD1B2" rx="11" ry="11" style="stroke:#181818;stroke-width:1;"/><path d="M5289.4688,180.1406 Q5288.8906,180.4375 5288.25,180.5781 Q5287.6094,180.7344 5286.9063,180.7344 Q5284.4063,180.7344 5283.0781,179.0938 Q5281.7656,177.4375 5281.7656,174.3125 Q5281.7656,171.1875 5283.0781,169.5313 Q5284.4063,167.875 5286.9063,167.875 Q5287.6094,167.875 5288.25,168.0313 Q5288.9063,168.1875 5289.4688,168.4844 L5289.4688,171.2031 Q5288.8438,170.625 5288.25,170.3594 Q5287.6563,170.0781 5287.0313,170.0781 Q5285.6875,170.0781 5285,171.1563 Q5284.3125,172.2188 5284.3125,174.3125 Q5284.3125,176.4063 5285,177.4844 Q5285.6875,178.5469 5287.0313,178.5469 Q5287.6563,178.5469 5288.25,178.2813 Q5288.8438,178 5289.4688,177.4219 L5289.4688,180.1406 Z " fill="#000000"/><text fill="#000000" font-family="sans-serif" font-size="14" lengthAdjust="spacing" textLength="260.1689" x="5300.5" y="179.3467">logic_arc_int__baselibs__utils_base64</text><line style="stroke:#181818;stroke-width:0.5;" x1="5272.5" x2="5562.6689" y1="190.5" y2="190.5"/></g><!--class logic_arc_int__baselibs__utils_scoped_op--><g id="elem_logic_arc_int__baselibs__utils_scoped_op"><rect fill="#F1F1F1" height="40" id="logic_arc_int__baselibs__utils_scoped_op" rx="2.5" ry="2.5" style="stroke:#181818;stroke-width:0.5;" width="315.377" x="5599" y="158.5"/><ellipse cx="5614" cy="174.5" fill="#ADD1B2" rx="11" ry="11" style="stroke:#181818;stroke-width:1;"/><path d="M5616.9688,180.1406 Q5616.3906,180.4375 5615.75,180.5781 Q5615.1094,180.7344 5614.4063,180.7344 Q5611.9063,180.7344 5610.5781,179.0938 Q5609.2656,177.4375 5609.2656,174.3125 Q5609.2656,171.1875 5610.5781,169.5313 Q5611.9063,167.875 5614.4063,167.875 Q5615.1094,167.875 5615.75,168.0313 Q5616.4063,168.1875 5616.9688,168.4844 L5616.9688,171.2031 Q5616.3438,170.625 5615.75,170.3594 Q5615.1563,170.0781 5614.5313,170.0781 Q5613.1875,170.0781 5612.5,171.1563 Q5611.8125,172.2188 5611.8125,174.3125 Q5611.8125,176.4063 5612.5,177.4844 Q5613.1875,178.5469 5614.5313,178.5469 Q5615.1563,178.5469 5615.75,178.2813 Q5616.3438,178 5616.9688,177.4219 L5616.9688,180.1406 Z " fill="#000000"/><text fill="#000000" font-family="sans-serif" font-size="14" lengthAdjust="spacing" textLength="283.377" x="5628" y="179.3467">logic_arc_int__baselibs__utils_scoped_op</text><line style="stroke:#181818;stroke-width:0.5;" x1="5600" x2="5913.377" y1="190.5" y2="190.5"/></g><!--class logic_arc_int__baselibs__promise--><g id="elem_logic_arc_int__baselibs__promise"><rect fill="#F1F1F1" height="40" id="logic_arc_int__baselibs__promise" rx="2.5" ry="2.5" style="stroke:#181818;stroke-width:0.5;" width="261.1885" x="1404" y="158.5"/><ellipse cx="1419" cy="174.5" fill="#ADD1B2" rx="11" ry="11" style="stroke:#181818;stroke-width:1;"/><path d="M1421.9688,180.1406 Q1421.3906,180.4375 1420.75,180.5781 Q1420.1094,180.7344 1419.4063,180.7344 Q1416.9063,180.7344 1415.5781,179.0938 Q1414.2656,177.4375 1414.2656,174.3125 Q1414.2656,171.1875 1415.5781,169.5313 Q1416.9063,167.875 1419.4063,167.875 Q1420.1094,167.875 1420.75,168.0313 Q1421.4063,168.1875 1421.9688,168.4844 L1421.9688,171.2031 Q1421.3438,170.625 1420.75,170.3594 Q1420.1563,170.0781 1419.5313,170.0781 Q1418.1875,170.0781 1417.5,171.1563 Q1416.8125,172.2188 1416.8125,174.3125 Q1416.8125,176.4063 1417.5,177.4844 Q1418.1875,178.5469 1419.5313,178.5469 Q1420.1563,178.5469 1420.75,178.2813 Q1421.3438,178 1421.9688,177.4219 L1421.9688,180.1406 Z " fill="#000000"/><text fill="#000000" font-family="sans-serif" font-size="14" lengthAdjust="spacing" textLength="229.1885" x="1433" y="179.3467">logic_arc_int__baselibs__promise</text><line style="stroke:#181818;stroke-width:0.5;" x1="1405" x2="1664.1885" y1="190.5" y2="190.5"/></g><!--class logic_arc_int__baselibs__task_result--><g id="elem_logic_arc_int__baselibs__task_result"><rect fill="#F1F1F1" height="40" id="logic_arc_int__baselibs__task_result" rx="2.5" ry="2.5" style="stroke:#181818;stroke-width:0.5;" width="280.9307" x="3359" y="158.5"/><ellipse cx="3374" cy="174.5" fill="#ADD1B2" rx="11" ry="11" style="stroke:#181818;stroke-width:1;"/><path d="M3376.9688,180.1406 Q3376.3906,180.4375 3375.75,180.5781 Q3375.1094,180.7344 3374.4063,180.7344 Q3371.9063,180.7344 3370.5781,179.0938 Q3369.2656,177.4375 3369.2656,174.3125 Q3369.2656,171.1875 3370.5781,169.5313 Q3371.9063,167.875 3374.4063,167.875 Q3375.1094,167.875 3375.75,168.0313 Q3376.4063,168.1875 3376.9688,168.4844 L3376.9688,171.2031 Q3376.3438,170.625 3375.75,170.3594 Q3375.1563,170.0781 3374.5313,170.0781 Q3373.1875,170.0781 3372.5,171.1563 Q3371.8125,172.2188 3371.8125,174.3125 Q3371.8125,176.4063 3372.5,177.4844 Q3373.1875,178.5469 3374.5313,178.5469 Q3375.1563,178.5469 3375.75,178.2813 Q3376.3438,178 3376.9688,177.4219 L3376.9688,180.1406 Z " fill="#000000"/><text fill="#000000" font-family="sans-serif" font-size="14" lengthAdjust="spacing" textLength="248.9307" x="3388" y="179.3467">logic_arc_int__baselibs__task_result</text><line style="stroke:#181818;stroke-width:0.5;" x1="3360" x2="3638.9307" y1="190.5" y2="190.5"/></g><!--class logic_arc_int__baselibs__message_passing--><g id="elem_logic_arc_int__baselibs__message_passing"><rect fill="#F1F1F1" height="40" id="logic_arc_int__baselibs__message_passing" rx="2.5" ry="2.5" style="stroke:#181818;stroke-width:0.5;" width="328.167" x="4908.5" y="158.5"/><ellipse cx="4923.5" cy="174.5" fill="#ADD1B2" rx="11" ry="11" style="stroke:#181818;stroke-width:1;"/><path d="M4926.4688,180.1406 Q4925.8906,180.4375 4925.25,180.5781 Q4924.6094,180.7344 4923.9063,180.7344 Q4921.4063,180.7344 4920.0781,179.0938 Q4918.7656,177.4375 4918.7656,174.3125 Q4918.7656,171.1875 4920.0781,169.5313 Q4921.4063,167.875 4923.9063,167.875 Q4924.6094,167.875 4925.25,168.0313 Q4925.9063,168.1875 4926.4688,168.4844 L4926.4688,171.2031 Q4925.8438,170.625 4925.25,170.3594 Q4924.6563,170.0781 4924.0313,170.0781 Q4922.6875,170.0781 4922,171.1563 Q4921.3125,172.2188 4921.3125,174.3125 Q4921.3125,176.4063 4922,177.4844 Q4922.6875,178.5469 4924.0313,178.5469 Q4924.6563,178.5469 4925.25,178.2813 Q4925.8438,178 4926.4688,177.4219 L4926.4688,180.1406 Z " fill="#000000"/><text fill="#000000" font-family="sans-serif" font-size="14" lengthAdjust="spacing" textLength="296.167" x="4937.5" y="179.3467">logic_arc_int__baselibs__message_passing</text><line style="stroke:#181818;stroke-width:0.5;" x1="4909.5" x2="5235.667" y1="190.5" y2="190.5"/></g><!--class comp_arc_sta__baselibs__containers--><g id="elem_comp_arc_sta__baselibs__containers"><rect fill="#F1F1F1" height="40" id="comp_arc_sta__baselibs__containers" rx="2.5" ry="2.5" style="stroke:#181818;stroke-width:0.5;" width="287.1445" x="4409" y="275.5"/><ellipse cx="4424" cy="291.5" fill="#ADD1B2" rx="11" ry="11" style="stroke:#181818;stroke-width:1;"/><path d="M4426.9688,297.1406 Q4426.3906,297.4375 4425.75,297.5781 Q4425.1094,297.7344 4424.4063,297.7344 Q4421.9063,297.7344 4420.5781,296.0938 Q4419.2656,294.4375 4419.2656,291.3125 Q4419.2656,288.1875 4420.5781,286.5313 Q4421.9063,284.875 4424.4063,284.875 Q4425.1094,284.875 4425.75,285.0313 Q4426.4063,285.1875 4426.9688,285.4844 L4426.9688,288.2031 Q4426.3438,287.625 4425.75,287.3594 Q4425.1563,287.0781 4424.5313,287.0781 Q4423.1875,287.0781 4422.5,288.1563 Q4421.8125,289.2188 4421.8125,291.3125 Q4421.8125,293.4063 4422.5,294.4844 Q4423.1875,295.5469 4424.5313,295.5469 Q4425.1563,295.5469 4425.75,295.2813 Q4426.3438,295 4426.9688,294.4219 L4426.9688,297.1406 Z " fill="#000000"/><text fill="#000000" font-family="sans-serif" font-size="14" lengthAdjust="spacing" textLength="255.1445" x="4438" y="296.3467">comp_arc_sta__baselibs__containers</text><line style="stroke:#181818;stroke-width:0.5;" x1="4410" x2="4695.1445" y1="307.5" y2="307.5"/></g><!--class logic_arc_int__baselibs__dynamic_array--><g id="elem_logic_arc_int__baselibs__dynamic_array"><rect fill="#F1F1F1" height="40" id="logic_arc_int__baselibs__dynamic_array" rx="2.5" ry="2.5" style="stroke:#181818;stroke-width:0.5;" width="308.3496" x="4565.5" y="158.5"/><ellipse cx="4580.5" cy="174.5" fill="#ADD1B2" rx="11" ry="11" style="stroke:#181818;stroke-width:1;"/><path d="M4583.4688,180.1406 Q4582.8906,180.4375 4582.25,180.5781 Q4581.6094,180.7344 4580.9063,180.7344 Q4578.4063,180.7344 4577.0781,179.0938 Q4575.7656,177.4375 4575.7656,174.3125 Q4575.7656,171.1875 4577.0781,169.5313 Q4578.4063,167.875 4580.9063,167.875 Q4581.6094,167.875 4582.25,168.0313 Q4582.9063,168.1875 4583.4688,168.4844 L4583.4688,171.2031 Q4582.8438,170.625 4582.25,170.3594 Q4581.6563,170.0781 4581.0313,170.0781 Q4579.6875,170.0781 4579,171.1563 Q4578.3125,172.2188 4578.3125,174.3125 Q4578.3125,176.4063 4579,177.4844 Q4579.6875,178.5469 4581.0313,178.5469 Q4581.6563,178.5469 4582.25,178.2813 Q4582.8438,178 4583.4688,177.4219 L4583.4688,180.1406 Z " fill="#000000"/><text fill="#000000" font-family="sans-serif" font-size="14" lengthAdjust="spacing" textLength="276.3496" x="4594.5" y="179.3467">logic_arc_int__baselibs__dynamic_array</text><line style="stroke:#181818;stroke-width:0.5;" x1="4566.5" x2="4872.8496" y1="190.5" y2="190.5"/></g><!--class logic_arc_int__baselibs__result--><g id="elem_logic_arc_int__baselibs__result"><rect fill="#F1F1F1" height="40" id="logic_arc_int__baselibs__result" rx="2.5" ry="2.5" style="stroke:#181818;stroke-width:0.5;" width="244.4609" x="3957.5" y="158.5"/><ellipse cx="3972.5" cy="174.5" fill="#ADD1B2" rx="11" ry="11" style="stroke:#181818;stroke-width:1;"/><path d="M3975.4688,180.1406 Q3974.8906,180.4375 3974.25,180.5781 Q3973.6094,180.7344 3972.9063,180.7344 Q3970.4063,180.7344 3969.0781,179.0938 Q3967.7656,177.4375 3967.7656,174.3125 Q3967.7656,171.1875 3969.0781,169.5313 Q3970.4063,167.875 3972.9063,167.875 Q3973.6094,167.875 3974.25,168.0313 Q3974.9063,168.1875 3975.4688,168.4844 L3975.4688,171.2031 Q3974.8438,170.625 3974.25,170.3594 Q3973.6563,170.0781 3973.0313,170.0781 Q3971.6875,170.0781 3971,171.1563 Q3970.3125,172.2188 3970.3125,174.3125 Q3970.3125,176.4063 3971,177.4844 Q3971.6875,178.5469 3973.0313,178.5469 Q3973.6563,178.5469 3974.25,178.2813 Q3974.8438,178 3975.4688,177.4219 L3975.4688,180.1406 Z " fill="#000000"/><text fill="#000000" font-family="sans-serif" font-size="14" lengthAdjust="spacing" textLength="212.4609" x="3986.5" y="179.3467">logic_arc_int__baselibs__result</text><line style="stroke:#181818;stroke-width:0.5;" x1="3958.5" x2="4200.9609" y1="190.5" y2="190.5"/></g><!--class logic_arc_int__baselibs__bit_mask_operator--><g id="elem_logic_arc_int__baselibs__bit_mask_operator"><rect fill="#F1F1F1" height="40" id="logic_arc_int__baselibs__bit_mask_operator" rx="2.5" ry="2.5" style="stroke:#181818;stroke-width:0.5;" width="334.6406" x="680" y="158.5"/><ellipse cx="695" cy="174.5" fill="#ADD1B2" rx="11" ry="11" style="stroke:#181818;stroke-width:1;"/><path d="M697.9688,180.1406 Q697.3906,180.4375 696.75,180.5781 Q696.1094,180.7344 695.4063,180.7344 Q692.9063,180.7344 691.5781,179.0938 Q690.2656,177.4375 690.2656,174.3125 Q690.2656,171.1875 691.5781,169.5313 Q692.9063,167.875 695.4063,167.875 Q696.1094,167.875 696.75,168.0313 Q697.4063,168.1875 697.9688,168.4844 L697.9688,171.2031 Q697.3438,170.625 696.75,170.3594 Q696.1563,170.0781 695.5313,170.0781 Q694.1875,170.0781 693.5,171.1563 Q692.8125,172.2188 692.8125,174.3125 Q692.8125,176.4063 693.5,177.4844 Q694.1875,178.5469 695.5313,178.5469 Q696.1563,178.5469 696.75,178.2813 Q697.3438,178 697.9688,177.4219 L697.9688,180.1406 Z " fill="#000000"/><text fill="#000000" font-family="sans-serif" font-size="14" lengthAdjust="spacing" textLength="302.6406" x="709" y="179.3467">logic_arc_int__baselibs__bit_mask_operator</text><line style="stroke:#181818;stroke-width:0.5;" x1="681" x2="1013.6406" y1="190.5" y2="190.5"/></g><!--class logic_arc_int__baselibs__executor--><g id="elem_logic_arc_int__baselibs__executor"><rect fill="#F1F1F1" height="40" id="logic_arc_int__baselibs__executor" rx="2.5" ry="2.5" style="stroke:#181818;stroke-width:0.5;" width="266.4385" x="2689.5" y="158.5"/><ellipse cx="2704.5" cy="174.5" fill="#ADD1B2" rx="11" ry="11" style="stroke:#181818;stroke-width:1;"/><path d="M2707.4688,180.1406 Q2706.8906,180.4375 2706.25,180.5781 Q2705.6094,180.7344 2704.9063,180.7344 Q2702.4063,180.7344 2701.0781,179.0938 Q2699.7656,177.4375 2699.7656,174.3125 Q2699.7656,171.1875 2701.0781,169.5313 Q2702.4063,167.875 2704.9063,167.875 Q2705.6094,167.875 2706.25,168.0313 Q2706.9063,168.1875 2707.4688,168.4844 L2707.4688,171.2031 Q2706.8438,170.625 2706.25,170.3594 Q2705.6563,170.0781 2705.0313,170.0781 Q2703.6875,170.0781 2703,171.1563 Q2702.3125,172.2188 2702.3125,174.3125 Q2702.3125,176.4063 2703,177.4844 Q2703.6875,178.5469 2705.0313,178.5469 Q2705.6563,178.5469 2706.25,178.2813 Q2706.8438,178 2707.4688,177.4219 L2707.4688,180.1406 Z " fill="#000000"/><text fill="#000000" font-family="sans-serif" font-size="14" lengthAdjust="spacing" textLength="234.4385" x="2718.5" y="179.3467">logic_arc_int__baselibs__executor</text><line style="stroke:#181818;stroke-width:0.5;" x1="2690.5" x2="2954.9385" y1="190.5" y2="190.5"/></g><!--class comp_arc_sta__baselibs__message_passing--><g id="elem_comp_arc_sta__baselibs__message_passing"><rect fill="#F1F1F1" height="40" id="comp_arc_sta__baselibs__message_passing" rx="2.5" ry="2.5" style="stroke:#181818;stroke-width:0.5;" width="337.1357" x="4904" y="275.5"/><ellipse cx="4919" cy="291.5" fill="#ADD1B2" rx="11" ry="11" style="stroke:#181818;stroke-width:1;"/><path d="M4921.9688,297.1406 Q4921.3906,297.4375 4920.75,297.5781 Q4920.1094,297.7344 4919.4063,297.7344 Q4916.9063,297.7344 4915.5781,296.0938 Q4914.2656,294.4375 4914.2656,291.3125 Q4914.2656,288.1875 4915.5781,286.5313 Q4916.9063,284.875 4919.4063,284.875 Q4920.1094,284.875 4920.75,285.0313 Q4921.4063,285.1875 4921.9688,285.4844 L4921.9688,288.2031 Q4921.3438,287.625 4920.75,287.3594 Q4920.1563,287.0781 4919.5313,287.0781 Q4918.1875,287.0781 4917.5,288.1563 Q4916.8125,289.2188 4916.8125,291.3125 Q4916.8125,293.4063 4917.5,294.4844 Q4918.1875,295.5469 4919.5313,295.5469 Q4920.1563,295.5469 4920.75,295.2813 Q4921.3438,295 4921.9688,294.4219 L4921.9688,297.1406 Z " fill="#000000"/><text fill="#000000" font-family="sans-serif" font-size="14" lengthAdjust="spacing" textLength="305.1357" x="4933" y="296.3467">comp_arc_sta__baselibs__message_passing</text><line style="stroke:#181818;stroke-width:0.5;" x1="4905" x2="5240.1357" y1="307.5" y2="307.5"/></g><!--class logic_arc_int__baselibs__condition_variable--><g id="elem_logic_arc_int__baselibs__condition_variable"><rect fill="#F1F1F1" height="40" id="logic_arc_int__baselibs__condition_variable" rx="2.5" ry="2.5" style="stroke:#181818;stroke-width:0.5;" width="332.7539" x="2991" y="158.5"/><ellipse cx="3006" cy="174.5" fill="#ADD1B2" rx="11" ry="11" style="stroke:#181818;stroke-width:1;"/><path d="M3008.9688,180.1406 Q3008.3906,180.4375 3007.75,180.5781 Q3007.1094,180.7344 3006.4063,180.7344 Q3003.9063,180.7344 3002.5781,179.0938 Q3001.2656,177.4375 3001.2656,174.3125 Q3001.2656,171.1875 3002.5781,169.5313 Q3003.9063,167.875 3006.4063,167.875 Q3007.1094,167.875 3007.75,168.0313 Q3008.4063,168.1875 3008.9688,168.4844 L3008.9688,171.2031 Q3008.3438,170.625 3007.75,170.3594 Q3007.1563,170.0781 3006.5313,170.0781 Q3005.1875,170.0781 3004.5,171.1563 Q3003.8125,172.2188 3003.8125,174.3125 Q3003.8125,176.4063 3004.5,177.4844 Q3005.1875,178.5469 3006.5313,178.5469 Q3007.1563,178.5469 3007.75,178.2813 Q3008.3438,178 3008.9688,177.4219 L3008.9688,180.1406 Z " fill="#000000"/><text fill="#000000" font-family="sans-serif" font-size="14" lengthAdjust="spacing" textLength="300.7539" x="3020" y="179.3467">logic_arc_int__baselibs__condition_variable</text><line style="stroke:#181818;stroke-width:0.5;" x1="2992" x2="3322.7539" y1="190.5" y2="190.5"/></g><!--class logic_arc_int__baselibs__filesystem--><g id="elem_logic_arc_int__baselibs__filesystem"><rect fill="#F1F1F1" height="40" id="logic_arc_int__baselibs__filesystem" rx="2.5" ry="2.5" style="stroke:#181818;stroke-width:0.5;" width="276.4805" x="11.5" y="158.5"/><ellipse cx="26.5" cy="174.5" fill="#ADD1B2" rx="11" ry="11" style="stroke:#181818;stroke-width:1;"/><path d="M29.4688,180.1406 Q28.8906,180.4375 28.25,180.5781 Q27.6094,180.7344 26.9063,180.7344 Q24.4063,180.7344 23.0781,179.0938 Q21.7656,177.4375 21.7656,174.3125 Q21.7656,171.1875 23.0781,169.5313 Q24.4063,167.875 26.9063,167.875 Q27.6094,167.875 28.25,168.0313 Q28.9063,168.1875 29.4688,168.4844 L29.4688,171.2031 Q28.8438,170.625 28.25,170.3594 Q27.6563,170.0781 27.0313,170.0781 Q25.6875,170.0781 25,171.1563 Q24.3125,172.2188 24.3125,174.3125 Q24.3125,176.4063 25,177.4844 Q25.6875,178.5469 27.0313,178.5469 Q27.6563,178.5469 28.25,178.2813 Q28.8438,178 29.4688,177.4219 L29.4688,180.1406 Z " fill="#000000"/><text fill="#000000" font-family="sans-serif" font-size="14" lengthAdjust="spacing" textLength="244.4805" x="40.5" y="179.3467">logic_arc_int__baselibs__filesystem</text><line style="stroke:#181818;stroke-width:0.5;" x1="12.5" x2="286.9805" y1="190.5" y2="190.5"/></g><!--class logic_arc_int__baselibs__synchronized_queue--><g id="elem_logic_arc_int__baselibs__synchronized_queue"><rect fill="#F1F1F1" height="40" id="logic_arc_int__baselibs__synchronized_queue" rx="2.5" ry="2.5" style="stroke:#181818;stroke-width:0.5;" width="348.3604" x="1700.5" y="158.5"/><ellipse cx="1715.5" cy="174.5" fill="#ADD1B2" rx="11" ry="11" style="stroke:#181818;stroke-width:1;"/><path d="M1718.4688,180.1406 Q1717.8906,180.4375 1717.25,180.5781 Q1716.6094,180.7344 1715.9063,180.7344 Q1713.4063,180.7344 1712.0781,179.0938 Q1710.7656,177.4375 1710.7656,174.3125 Q1710.7656,171.1875 1712.0781,169.5313 Q1713.4063,167.875 1715.9063,167.875 Q1716.6094,167.875 1717.25,168.0313 Q1717.9063,168.1875 1718.4688,168.4844 L1718.4688,171.2031 Q1717.8438,170.625 1717.25,170.3594 Q1716.6563,170.0781 1716.0313,170.0781 Q1714.6875,170.0781 1714,171.1563 Q1713.3125,172.2188 1713.3125,174.3125 Q1713.3125,176.4063 1714,177.4844 Q1714.6875,178.5469 1716.0313,178.5469 Q1716.6563,178.5469 1717.25,178.2813 Q1717.8438,178 1718.4688,177.4219 L1718.4688,180.1406 Z " fill="#000000"/><text fill="#000000" font-family="sans-serif" font-size="14" lengthAdjust="spacing" textLength="316.3604" x="1729.5" y="179.3467">logic_arc_int__baselibs__synchronized_queue</text><line style="stroke:#181818;stroke-width:0.5;" x1="1701.5" x2="2047.8604" y1="190.5" y2="190.5"/></g><!--class comp_arc_sta__baselibs__result--><g id="elem_comp_arc_sta__baselibs__result"><rect fill="#F1F1F1" height="40" id="comp_arc_sta__baselibs__result" rx="2.5" ry="2.5" style="stroke:#181818;stroke-width:0.5;" width="253.4297" x="3953" y="275.5"/><ellipse cx="3968" cy="291.5" fill="#ADD1B2" rx="11" ry="11" style="stroke:#181818;stroke-width:1;"/><path d="M3970.9688,297.1406 Q3970.3906,297.4375 3969.75,297.5781 Q3969.1094,297.7344 3968.4063,297.7344 Q3965.9063,297.7344 3964.5781,296.0938 Q3963.2656,294.4375 3963.2656,291.3125 Q3963.2656,288.1875 3964.5781,286.5313 Q3965.9063,284.875 3968.4063,284.875 Q3969.1094,284.875 3969.75,285.0313 Q3970.4063,285.1875 3970.9688,285.4844 L3970.9688,288.2031 Q3970.3438,287.625 3969.75,287.3594 Q3969.1563,287.0781 3968.5313,287.0781 Q3967.1875,287.0781 3966.5,288.1563 Q3965.8125,289.2188 3965.8125,291.3125 Q3965.8125,293.4063 3966.5,294.4844 Q3967.1875,295.5469 3968.5313,295.5469 Q3969.1563,295.5469 3969.75,295.2813 Q3970.3438,295 3970.9688,294.4219 L3970.9688,297.1406 Z " fill="#000000"/><text fill="#000000" font-family="sans-serif" font-size="14" lengthAdjust="spacing" textLength="221.4297" x="3982" y="296.3467">comp_arc_sta__baselibs__result</text><line style="stroke:#181818;stroke-width:0.5;" x1="3954" x2="4205.4297" y1="307.5" y2="307.5"/></g><!--class logic_arc_int__baselibs__intrusive_list--><g id="elem_logic_arc_int__baselibs__intrusive_list"><rect fill="#F1F1F1" height="40" id="logic_arc_int__baselibs__intrusive_list" rx="2.5" ry="2.5" style="stroke:#181818;stroke-width:0.5;" width="293.0713" x="4237" y="158.5"/><ellipse cx="4252" cy="174.5" fill="#ADD1B2" rx="11" ry="11" style="stroke:#181818;stroke-width:1;"/><path d="M4254.9688,180.1406 Q4254.3906,180.4375 4253.75,180.5781 Q4253.1094,180.7344 4252.4063,180.7344 Q4249.9063,180.7344 4248.5781,179.0938 Q4247.2656,177.4375 4247.2656,174.3125 Q4247.2656,171.1875 4248.5781,169.5313 Q4249.9063,167.875 4252.4063,167.875 Q4253.1094,167.875 4253.75,168.0313 Q4254.4063,168.1875 4254.9688,168.4844 L4254.9688,171.2031 Q4254.3438,170.625 4253.75,170.3594 Q4253.1563,170.0781 4252.5313,170.0781 Q4251.1875,170.0781 4250.5,171.1563 Q4249.8125,172.2188 4249.8125,174.3125 Q4249.8125,176.4063 4250.5,177.4844 Q4251.1875,178.5469 4252.5313,178.5469 Q4253.1563,178.5469 4253.75,178.2813 Q4254.3438,178 4254.9688,177.4219 L4254.9688,180.1406 Z " fill="#000000"/><text fill="#000000" font-family="sans-serif" font-size="14" lengthAdjust="spacing" textLength="261.0713" x="4266" y="179.3467">logic_arc_int__baselibs__intrusive_list</text><line style="stroke:#181818;stroke-width:0.5;" x1="4238" x2="4529.0713" y1="190.5" y2="190.5"/></g><!--class comp_arc_sta__baselibs__memory_shared--><g id="elem_comp_arc_sta__baselibs__memory_shared"><rect fill="#F1F1F1" height="40" id="comp_arc_sta__baselibs__memory_shared" rx="2.5" ry="2.5" style="stroke:#181818;stroke-width:0.5;" width="327.0117" x="1046" y="275.5"/><ellipse cx="1061" cy="291.5" fill="#ADD1B2" rx="11" ry="11" style="stroke:#181818;stroke-width:1;"/><path d="M1063.9688,297.1406 Q1063.3906,297.4375 1062.75,297.5781 Q1062.1094,297.7344 1061.4063,297.7344 Q1058.9063,297.7344 1057.5781,296.0938 Q1056.2656,294.4375 1056.2656,291.3125 Q1056.2656,288.1875 1057.5781,286.5313 Q1058.9063,284.875 1061.4063,284.875 Q1062.1094,284.875 1062.75,285.0313 Q1063.4063,285.1875 1063.9688,285.4844 L1063.9688,288.2031 Q1063.3438,287.625 1062.75,287.3594 Q1062.1563,287.0781 1061.5313,287.0781 Q1060.1875,287.0781 1059.5,288.1563 Q1058.8125,289.2188 1058.8125,291.3125 Q1058.8125,293.4063 1059.5,294.4844 Q1060.1875,295.5469 1061.5313,295.5469 Q1062.1563,295.5469 1062.75,295.2813 Q1063.3438,295 1063.9688,294.4219 L1063.9688,297.1406 Z " fill="#000000"/><text fill="#000000" font-family="sans-serif" font-size="14" lengthAdjust="spacing" textLength="295.0117" x="1075" y="296.3467">comp_arc_sta__baselibs__memory_shared</text><line style="stroke:#181818;stroke-width:0.5;" x1="1047" x2="1372.0117" y1="307.5" y2="307.5"/></g><!--class logic_arc_int__baselibs__memory_shared--><g id="elem_logic_arc_int__baselibs__memory_shared"><rect fill="#F1F1F1" height="40" id="logic_arc_int__baselibs__memory_shared" rx="2.5" ry="2.5" style="stroke:#181818;stroke-width:0.5;" width="318.043" x="1050.5" y="158.5"/><ellipse cx="1065.5" cy="174.5" fill="#ADD1B2" rx="11" ry="11" style="stroke:#181818;stroke-width:1;"/><path d="M1068.4688,180.1406 Q1067.8906,180.4375 1067.25,180.5781 Q1066.6094,180.7344 1065.9063,180.7344 Q1063.4063,180.7344 1062.0781,179.0938 Q1060.7656,177.4375 1060.7656,174.3125 Q1060.7656,171.1875 1062.0781,169.5313 Q1063.4063,167.875 1065.9063,167.875 Q1066.6094,167.875 1067.25,168.0313 Q1067.9063,168.1875 1068.4688,168.4844 L1068.4688,171.2031 Q1067.8438,170.625 1067.25,170.3594 Q1066.6563,170.0781 1066.0313,170.0781 Q1064.6875,170.0781 1064,171.1563 Q1063.3125,172.2188 1063.3125,174.3125 Q1063.3125,176.4063 1064,177.4844 Q1064.6875,178.5469 1066.0313,178.5469 Q1066.6563,178.5469 1067.25,178.2813 Q1067.8438,178 1068.4688,177.4219 L1068.4688,180.1406 Z " fill="#000000"/><text fill="#000000" font-family="sans-serif" font-size="14" lengthAdjust="spacing" textLength="286.043" x="1079.5" y="179.3467">logic_arc_int__baselibs__memory_shared</text><line style="stroke:#181818;stroke-width:0.5;" x1="1051.5" x2="1367.543" y1="190.5" y2="190.5"/></g><!--class logic_arc_int__baselibs__future--><g id="elem_logic_arc_int__baselibs__future"><rect fill="#F1F1F1" height="40" id="logic_arc_int__baselibs__future" rx="2.5" ry="2.5" style="stroke:#181818;stroke-width:0.5;" width="247.0791" x="3675" y="158.5"/><ellipse cx="3690" cy="174.5" fill="#ADD1B2" rx="11" ry="11" style="stroke:#181818;stroke-width:1;"/><path d="M3692.9688,180.1406 Q3692.3906,180.4375 3691.75,180.5781 Q3691.1094,180.7344 3690.4063,180.7344 Q3687.9063,180.7344 3686.5781,179.0938 Q3685.2656,177.4375 3685.2656,174.3125 Q3685.2656,171.1875 3686.5781,169.5313 Q3687.9063,167.875 3690.4063,167.875 Q3691.1094,167.875 3691.75,168.0313 Q3692.4063,168.1875 3692.9688,168.4844 L3692.9688,171.2031 Q3692.3438,170.625 3691.75,170.3594 Q3691.1563,170.0781 3690.5313,170.0781 Q3689.1875,170.0781 3688.5,171.1563 Q3687.8125,172.2188 3687.8125,174.3125 Q3687.8125,176.4063 3688.5,177.4844 Q3689.1875,178.5469 3690.5313,178.5469 Q3691.1563,178.5469 3691.75,178.2813 Q3692.3438,178 3692.9688,177.4219 L3692.9688,180.1406 Z " fill="#000000"/><text fill="#000000" font-family="sans-serif" font-size="14" lengthAdjust="spacing" textLength="215.0791" x="3704" y="179.3467">logic_arc_int__baselibs__future</text><line style="stroke:#181818;stroke-width:0.5;" x1="3676" x2="3921.0791" y1="190.5" y2="190.5"/></g><!--class comp_arc_sta__baselibs__bit_manipulation--><g id="elem_comp_arc_sta__baselibs__bit_manipulation"><rect fill="#F1F1F1" height="40" id="comp_arc_sta__baselibs__bit_manipulation" rx="2.5" ry="2.5" style="stroke:#181818;stroke-width:0.5;" width="330.8057" x="504" y="275.5"/><ellipse cx="519" cy="291.5" fill="#ADD1B2" rx="11" ry="11" style="stroke:#181818;stroke-width:1;"/><path d="M521.9688,297.1406 Q521.3906,297.4375 520.75,297.5781 Q520.1094,297.7344 519.4063,297.7344 Q516.9063,297.7344 515.5781,296.0938 Q514.2656,294.4375 514.2656,291.3125 Q514.2656,288.1875 515.5781,286.5313 Q516.9063,284.875 519.4063,284.875 Q520.1094,284.875 520.75,285.0313 Q521.4063,285.1875 521.9688,285.4844 L521.9688,288.2031 Q521.3438,287.625 520.75,287.3594 Q520.1563,287.0781 519.5313,287.0781 Q518.1875,287.0781 517.5,288.1563 Q516.8125,289.2188 516.8125,291.3125 Q516.8125,293.4063 517.5,294.4844 Q518.1875,295.5469 519.5313,295.5469 Q520.1563,295.5469 520.75,295.2813 Q521.3438,295 521.9688,294.4219 L521.9688,297.1406 Z " fill="#000000"/><text fill="#000000" font-family="sans-serif" font-size="14" lengthAdjust="spacing" textLength="298.8057" x="533" y="296.3467">comp_arc_sta__baselibs__bit_manipulation</text><line style="stroke:#181818;stroke-width:0.5;" x1="505" x2="833.8057" y1="307.5" y2="307.5"/></g><!--class logic_arc_int__baselibs__bit_manipulation--><g id="elem_logic_arc_int__baselibs__bit_manipulation"><rect fill="#F1F1F1" height="40" id="logic_arc_int__baselibs__bit_manipulation" rx="2.5" ry="2.5" style="stroke:#181818;stroke-width:0.5;" width="321.8369" x="322.5" y="158.5"/><ellipse cx="337.5" cy="174.5" fill="#ADD1B2" rx="11" ry="11" style="stroke:#181818;stroke-width:1;"/><path d="M340.4688,180.1406 Q339.8906,180.4375 339.25,180.5781 Q338.6094,180.7344 337.9063,180.7344 Q335.4063,180.7344 334.0781,179.0938 Q332.7656,177.4375 332.7656,174.3125 Q332.7656,171.1875 334.0781,169.5313 Q335.4063,167.875 337.9063,167.875 Q338.6094,167.875 339.25,168.0313 Q339.9063,168.1875 340.4688,168.4844 L340.4688,171.2031 Q339.8438,170.625 339.25,170.3594 Q338.6563,170.0781 338.0313,170.0781 Q336.6875,170.0781 336,171.1563 Q335.3125,172.2188 335.3125,174.3125 Q335.3125,176.4063 336,177.4844 Q336.6875,178.5469 338.0313,178.5469 Q338.6563,178.5469 339.25,178.2813 Q339.8438,178 340.4688,177.4219 L340.4688,180.1406 Z " fill="#000000"/><text fill="#000000" font-family="sans-serif" font-size="14" lengthAdjust="spacing" textLength="289.8369" x="351.5" y="179.3467">logic_arc_int__baselibs__bit_manipulation</text><line style="stroke:#181818;stroke-width:0.5;" x1="323.5" x2="643.3369" y1="190.5" y2="190.5"/></g><!--class logic_arc_int__baselibs__task--><g id="elem_logic_arc_int__baselibs__task"><rect fill="#F1F1F1" height="40" id="logic_arc_int__baselibs__task" rx="2.5" ry="2.5" style="stroke:#181818;stroke-width:0.5;" width="234.0156" x="2420.5" y="158.5"/><ellipse cx="2435.5" cy="174.5" fill="#ADD1B2" rx="11" ry="11" style="stroke:#181818;stroke-width:1;"/><path d="M2438.4688,180.1406 Q2437.8906,180.4375 2437.25,180.5781 Q2436.6094,180.7344 2435.9063,180.7344 Q2433.4063,180.7344 2432.0781,179.0938 Q2430.7656,177.4375 2430.7656,174.3125 Q2430.7656,171.1875 2432.0781,169.5313 Q2433.4063,167.875 2435.9063,167.875 Q2436.6094,167.875 2437.25,168.0313 Q2437.9063,168.1875 2438.4688,168.4844 L2438.4688,171.2031 Q2437.8438,170.625 2437.25,170.3594 Q2436.6563,170.0781 2436.0313,170.0781 Q2434.6875,170.0781 2434,171.1563 Q2433.3125,172.2188 2433.3125,174.3125 Q2433.3125,176.4063 2434,177.4844 Q2434.6875,178.5469 2436.0313,178.5469 Q2436.6563,178.5469 2437.25,178.2813 Q2437.8438,178 2438.4688,177.4219 L2438.4688,180.1406 Z " fill="#000000"/><text fill="#000000" font-family="sans-serif" font-size="14" lengthAdjust="spacing" textLength="202.0156" x="2449.5" y="179.3467">logic_arc_int__baselibs__task</text><line style="stroke:#181818;stroke-width:0.5;" x1="2421.5" x2="2653.5156" y1="190.5" y2="190.5"/></g><!--class comp_arc_sta__baselibs__filesystem--><g id="elem_comp_arc_sta__baselibs__filesystem"><rect fill="#F1F1F1" height="40" id="comp_arc_sta__baselibs__filesystem" rx="2.5" ry="2.5" style="stroke:#181818;stroke-width:0.5;" width="285.4492" x="7" y="275.5"/><ellipse cx="22" cy="291.5" fill="#ADD1B2" rx="11" ry="11" style="stroke:#181818;stroke-width:1;"/><path d="M24.9688,297.1406 Q24.3906,297.4375 23.75,297.5781 Q23.1094,297.7344 22.4063,297.7344 Q19.9063,297.7344 18.5781,296.0938 Q17.2656,294.4375 17.2656,291.3125 Q17.2656,288.1875 18.5781,286.5313 Q19.9063,284.875 22.4063,284.875 Q23.1094,284.875 23.75,285.0313 Q24.4063,285.1875 24.9688,285.4844 L24.9688,288.2031 Q24.3438,287.625 23.75,287.3594 Q23.1563,287.0781 22.5313,287.0781 Q21.1875,287.0781 20.5,288.1563 Q19.8125,289.2188 19.8125,291.3125 Q19.8125,293.4063 20.5,294.4844 Q21.1875,295.5469 22.5313,295.5469 Q23.1563,295.5469 23.75,295.2813 Q24.3438,295 24.9688,294.4219 L24.9688,297.1406 Z " fill="#000000"/><text fill="#000000" font-family="sans-serif" font-size="14" lengthAdjust="spacing" textLength="253.4492" x="36" y="296.3467">comp_arc_sta__baselibs__filesystem</text><line style="stroke:#181818;stroke-width:0.5;" x1="8" x2="291.4492" y1="307.5" y2="307.5"/></g><!--reverse link logic_arc_int__baselibs__json to comp_arc_sta__baselibs__json--><g id="link_logic_arc_int__baselibs__json_comp_arc_sta__baselibs__json"><path codeLine="15" d="M6065.5,204.75 C6065.5,225.98 6065.5,253.94 6065.5,275.19 " fill="transparent" id="logic_arc_int__baselibs__json-backto-comp_arc_sta__baselibs__json" style="stroke:#181818;stroke-width:1;"/><polygon fill="#181818" points="6065.5,198.75,6061.5,207.75,6065.5,203.75,6069.5,207.75,6065.5,198.75" style="stroke:#181818;stroke-width:1;"/><text fill="#000000" font-family="sans-serif" font-size="13" lengthAdjust="spacing" textLength="76.9082" x="6066.5" y="241.5669">implements</text></g><!--reverse link logic_arc_int__baselibs__shared_future to comp_arc_sta__baselibs__concurrency--><g id="link_logic_arc_int__baselibs__shared_future_comp_arc_sta__baselibs__concurrency"><path codeLine="16" d="M2302.5763,200.3791 C2372.0363,221.6791 2477.93,254.15 2547.32,275.43 " fill="transparent" id="logic_arc_int__baselibs__shared_future-backto-comp_arc_sta__baselibs__concurrency" style="stroke:#181818;stroke-width:1;"/><polygon fill="#181818" points="2296.84,198.62,2304.2718,205.0828,2301.6203,200.0859,2306.6172,197.4344,2296.84,198.62" style="stroke:#181818;stroke-width:1;"/><text fill="#000000" font-family="sans-serif" font-size="13" lengthAdjust="spacing" textLength="76.9082" x="2445.5" y="241.5669">implements</text></g><!--reverse link logic_arc_int__baselibs__utils_base64 to comp_arc_sta__baselibs__utils--><g id="link_logic_arc_int__baselibs__utils_base64_comp_arc_sta__baselibs__utils"><path codeLine="17" d="M5450.7506,202.1252 C5482.0406,223.4152 5527.19,254.14 5558.4,275.38 " fill="transparent" id="logic_arc_int__baselibs__utils_base64-backto-comp_arc_sta__baselibs__utils" style="stroke:#181818;stroke-width:1;"/><polygon fill="#181818" points="5445.79,198.75,5450.9808,207.1199,5449.9238,201.5627,5455.4811,200.5058,5445.79,198.75" style="stroke:#181818;stroke-width:1;"/><text fill="#000000" font-family="sans-serif" font-size="13" lengthAdjust="spacing" textLength="76.9082" x="5513.5" y="241.5669">implements</text></g><!--reverse link logic_arc_int__baselibs__utils_scoped_op to comp_arc_sta__baselibs__utils--><g id="link_logic_arc_int__baselibs__utils_scoped_op_comp_arc_sta__baselibs__utils"><path codeLine="18" d="M5723.0799,202.1113 C5691.5999,223.4013 5646.16,254.14 5614.76,275.38 " fill="transparent" id="logic_arc_int__baselibs__utils_scoped_op-backto-comp_arc_sta__baselibs__utils" style="stroke:#181818;stroke-width:1;"/><polygon fill="#181818" points="5728.05,198.75,5718.354,200.4785,5723.9083,201.5511,5722.8357,207.1053,5728.05,198.75" style="stroke:#181818;stroke-width:1;"/><text fill="#000000" font-family="sans-serif" font-size="13" lengthAdjust="spacing" textLength="76.9082" x="5683.5" y="241.5669">implements</text></g><!--link Feature_User to logic_arc_int__baselibs__promise--><g id="link_Feature_User_logic_arc_int__baselibs__promise"><path codeLine="19" d="M3112.47,47.15 C2932.25,57.92 2245.55,100.64 1682.5,158.5 C1676.83,159.08 1677.0032,159.0463 1671.1632,159.6963 " fill="transparent" id="Feature_User-to-logic_arc_int__baselibs__promise" style="stroke:#181818;stroke-width:1;"/><polygon fill="#181818" points="1665.2,160.36,1674.5872,163.3399,1670.1693,159.8069,1673.7023,155.389,1665.2,160.36" style="stroke:#181818;stroke-width:1;"/><text fill="#000000" font-family="sans-serif" font-size="13" lengthAdjust="spacing" textLength="23.0103" x="2170.5" y="124.5669">use</text></g><!--link Feature_User to logic_arc_int__baselibs__task_result--><g id="link_Feature_User_logic_arc_int__baselibs__task_result"><path codeLine="20" d="M3202.56,62.02 C3266.77,86.99 3378.5479,130.4654 3444.8679,156.2554 " fill="transparent" id="Feature_User-to-logic_arc_int__baselibs__task_result" style="stroke:#181818;stroke-width:1;"/><polygon fill="#181818" points="3450.46,158.43,3443.5216,151.4401,3445.8,156.6178,3440.6222,158.8961,3450.46,158.43" style="stroke:#181818;stroke-width:1;"/><text fill="#000000" font-family="sans-serif" font-size="13" lengthAdjust="spacing" textLength="23.0103" x="3370.5" y="124.5669">use</text></g><!--link Feature_User to logic_arc_int__baselibs__message_passing--><g id="link_Feature_User_logic_arc_int__baselibs__message_passing"><path codeLine="21" d="M3202.74,46.73 C3401.9,56.72 4220.34,99.38 4890.5,158.5 C4896.35,159.02 4896.3358,159.0043 4902.3558,159.5643 " fill="transparent" id="Feature_User-to-logic_arc_int__baselibs__message_passing" style="stroke:#181818;stroke-width:1;"/><polygon fill="#181818" points="4908.33,160.12,4899.7392,155.3036,4903.3515,159.6569,4898.9982,163.2692,4908.33,160.12" style="stroke:#181818;stroke-width:1;"/><text fill="#000000" font-family="sans-serif" font-size="13" lengthAdjust="spacing" textLength="23.0103" x="4512.5" y="124.5669">use</text></g><!--reverse link logic_arc_int__baselibs__dynamic_array to comp_arc_sta__baselibs__containers--><g id="link_logic_arc_int__baselibs__dynamic_array_comp_arc_sta__baselibs__containers"><path codeLine="22" d="M4686.6082,202.1527 C4655.6882,223.4427 4611.11,254.14 4580.26,275.38 " fill="transparent" id="logic_arc_int__baselibs__dynamic_array-backto-comp_arc_sta__baselibs__containers" style="stroke:#181818;stroke-width:1;"/><polygon fill="#181818" points="4691.55,198.75,4681.8688,200.5595,4687.4318,201.5856,4686.4057,207.1486,4691.55,198.75" style="stroke:#181818;stroke-width:1;"/><text fill="#000000" font-family="sans-serif" font-size="13" lengthAdjust="spacing" textLength="76.9082" x="4647.5" y="241.5669">implements</text></g><!--link Feature_User to logic_arc_int__baselibs__result--><g id="link_Feature_User_logic_arc_int__baselibs__result"><path codeLine="23" d="M3202.59,51 C3338.9,70.67 3743.9715,129.1033 3951.2415,159.0033 " fill="transparent" id="Feature_User-to-logic_arc_int__baselibs__result" style="stroke:#181818;stroke-width:1;"/><polygon fill="#181818" points="3957.18,159.86,3948.8433,154.616,3952.2312,159.1461,3947.7011,162.534,3957.18,159.86" style="stroke:#181818;stroke-width:1;"/><text fill="#000000" font-family="sans-serif" font-size="13" lengthAdjust="spacing" textLength="23.0103" x="3729.5" y="124.5669">use</text></g><!--reverse link logic_arc_int__baselibs__task_result to comp_arc_sta__baselibs__concurrency--><g id="link_logic_arc_int__baselibs__task_result_comp_arc_sta__baselibs__concurrency"><path codeLine="24" d="M3353.0033,199.2678 C3253.4933,212.6178 3122.82,230.01 3002.5,245.5 C2922.37,255.82 2833.01,266.98 2759.76,276.05 " fill="transparent" id="logic_arc_int__baselibs__task_result-backto-comp_arc_sta__baselibs__concurrency" style="stroke:#181818;stroke-width:1;"/><polygon fill="#181818" points="3358.95,198.47,3349.4981,195.7022,3353.9944,199.1348,3350.5618,203.6312,3358.95,198.47" style="stroke:#181818;stroke-width:1;"/><text fill="#000000" font-family="sans-serif" font-size="13" lengthAdjust="spacing" textLength="76.9082" x="3126.5" y="241.5669">implements</text></g><!--link Feature_User to logic_arc_int__baselibs__bit_mask_operator--><g id="link_Feature_User_logic_arc_int__baselibs__bit_mask_operator"><path codeLine="25" d="M3112.2,45.9 C2887.02,53.07 1865.88,88.11 1032.5,158.5 C1026.87,158.98 1027.1159,158.9324 1021.3359,159.4524 " fill="transparent" id="Feature_User-to-logic_arc_int__baselibs__bit_mask_operator" style="stroke:#181818;stroke-width:1;"/><polygon fill="#181818" points="1015.36,159.99,1024.6822,163.1675,1020.3399,159.542,1023.9654,155.1997,1015.36,159.99" style="stroke:#181818;stroke-width:1;"/><text fill="#000000" font-family="sans-serif" font-size="13" lengthAdjust="spacing" textLength="23.0103" x="1675.5" y="124.5669">use</text></g><!--link Feature_User to logic_arc_int__baselibs__shared_future--><g id="link_Feature_User_logic_arc_int__baselibs__shared_future"><path codeLine="26" d="M3112.36,51 C2977.99,70.37 2582.8687,127.3043 2372.5187,157.6143 " fill="transparent" id="Feature_User-to-logic_arc_int__baselibs__shared_future" style="stroke:#181818;stroke-width:1;"/><polygon fill="#181818" points="2366.58,158.47,2376.0585,161.1455,2371.5289,157.7569,2374.9175,153.2273,2366.58,158.47" style="stroke:#181818;stroke-width:1;"/><text fill="#000000" font-family="sans-serif" font-size="13" lengthAdjust="spacing" textLength="23.0103" x="2669.5" y="124.5669">use</text></g><!--link Feature_User to logic_arc_int__baselibs__executor--><g id="link_Feature_User_logic_arc_int__baselibs__executor"><path codeLine="27" d="M3112.32,62.44 C3049.19,87.5 2940.6568,130.5965 2876.0568,156.2365 " fill="transparent" id="Feature_User-to-logic_arc_int__baselibs__executor" style="stroke:#181818;stroke-width:1;"/><polygon fill="#181818" points="2870.48,158.45,2880.3208,158.8477,2875.1273,156.6055,2877.3696,151.412,2870.48,158.45" style="stroke:#181818;stroke-width:1;"/><text fill="#000000" font-family="sans-serif" font-size="13" lengthAdjust="spacing" textLength="23.0103" x="2981.5" y="124.5669">use</text></g><!--reverse link logic_arc_int__baselibs__message_passing to comp_arc_sta__baselibs__message_passing--><g id="link_logic_arc_int__baselibs__message_passing_comp_arc_sta__baselibs__message_passing"><path codeLine="28" d="M5072.5,204.75 C5072.5,225.98 5072.5,253.94 5072.5,275.19 " fill="transparent" id="logic_arc_int__baselibs__message_passing-backto-comp_arc_sta__baselibs__message_passing" style="stroke:#181818;stroke-width:1;"/><polygon fill="#181818" points="5072.5,198.75,5068.5,207.75,5072.5,203.75,5076.5,207.75,5072.5,198.75" style="stroke:#181818;stroke-width:1;"/><text fill="#000000" font-family="sans-serif" font-size="13" lengthAdjust="spacing" textLength="76.9082" x="5073.5" y="241.5669">implements</text></g><!--reverse link logic_arc_int__baselibs__executor to comp_arc_sta__baselibs__concurrency--><g id="link_logic_arc_int__baselibs__executor_comp_arc_sta__baselibs__concurrency"><path codeLine="29" d="M2781.5701,201.6001 C2742.1301,222.8901 2684.25,254.14 2644.91,275.38 " fill="transparent" id="logic_arc_int__baselibs__executor-backto-comp_arc_sta__baselibs__concurrency" style="stroke:#181818;stroke-width:1;"/><polygon fill="#181818" points="2786.85,198.75,2777.0301,199.5053,2782.4501,201.1251,2780.8303,206.5451,2786.85,198.75" style="stroke:#181818;stroke-width:1;"/><text fill="#000000" font-family="sans-serif" font-size="13" lengthAdjust="spacing" textLength="76.9082" x="2730.5" y="241.5669">implements</text></g><!--link Feature_User to logic_arc_int__baselibs__condition_variable--><g id="link_Feature_User_logic_arc_int__baselibs__condition_variable"><path codeLine="30" d="M3157.5,81.55 C3157.5,106.45 3157.5,132.26 3157.5,152.26 " fill="transparent" id="Feature_User-to-logic_arc_int__baselibs__condition_variable" style="stroke:#181818;stroke-width:1;"/><polygon fill="#181818" points="3157.5,158.26,3161.5,149.26,3157.5,153.26,3153.5,149.26,3157.5,158.26" style="stroke:#181818;stroke-width:1;"/><text fill="#000000" font-family="sans-serif" font-size="13" lengthAdjust="spacing" textLength="23.0103" x="3158.5" y="124.5669">use</text></g><!--link Feature_User to logic_arc_int__baselibs__filesystem--><g id="link_Feature_User_logic_arc_int__baselibs__filesystem"><path codeLine="31" d="M3112.28,45.42 C2888.61,50.07 1878.22,72.35 1051.5,111.5 C719.22,127.24 635.74,127.8 304.5,158.5 C298.97,159.01 299.2891,158.9616 293.5991,159.5416 " fill="transparent" id="Feature_User-to-logic_arc_int__baselibs__filesystem" style="stroke:#181818;stroke-width:1;"/><polygon fill="#181818" points="287.63,160.15,296.9892,163.2167,292.6042,159.643,296.178,155.258,287.63,160.15" style="stroke:#181818;stroke-width:1;"/><text fill="#000000" font-family="sans-serif" font-size="13" lengthAdjust="spacing" textLength="23.0103" x="1052.5" y="124.5669">use</text></g><!--link Feature_User to logic_arc_int__baselibs__synchronized_queue--><g id="link_Feature_User_logic_arc_int__baselibs__synchronized_queue"><path codeLine="32" d="M3112.21,49.19 C2943.8,66.65 2353.938,127.8014 2054.678,158.8214 " fill="transparent" id="Feature_User-to-logic_arc_int__baselibs__synchronized_queue" style="stroke:#181818;stroke-width:1;"/><polygon fill="#181818" points="2048.71,159.44,2058.0744,162.4908,2053.6834,158.9245,2057.2496,154.5334,2048.71,159.44" style="stroke:#181818;stroke-width:1;"/><text fill="#000000" font-family="sans-serif" font-size="13" lengthAdjust="spacing" textLength="23.0103" x="2479.5" y="124.5669">use</text></g><!--reverse link logic_arc_int__baselibs__result to comp_arc_sta__baselibs__result--><g id="link_logic_arc_int__baselibs__result_comp_arc_sta__baselibs__result"><path codeLine="33" d="M4079.5,204.75 C4079.5,225.98 4079.5,253.94 4079.5,275.19 " fill="transparent" id="logic_arc_int__baselibs__result-backto-comp_arc_sta__baselibs__result" style="stroke:#181818;stroke-width:1;"/><polygon fill="#181818" points="4079.5,198.75,4075.5,207.75,4079.5,203.75,4083.5,207.75,4079.5,198.75" style="stroke:#181818;stroke-width:1;"/><text fill="#000000" font-family="sans-serif" font-size="13" lengthAdjust="spacing" textLength="76.9082" x="4080.5" y="241.5669">implements</text></g><!--reverse link logic_arc_int__baselibs__synchronized_queue to comp_arc_sta__baselibs__concurrency--><g id="link_logic_arc_int__baselibs__synchronized_queue_comp_arc_sta__baselibs__concurrency"><path codeLine="34" d="M2002.2078,199.4777 C2138.3678,220.7877 2351.66,254.16 2487.79,275.46 " fill="transparent" id="logic_arc_int__baselibs__synchronized_queue-backto-comp_arc_sta__baselibs__concurrency" style="stroke:#181818;stroke-width:1;"/><polygon fill="#181818" points="1996.28,198.55,2004.5533,203.8935,2001.2199,199.3231,2005.7903,195.9897,1996.28,198.55" style="stroke:#181818;stroke-width:1;"/><text fill="#000000" font-family="sans-serif" font-size="13" lengthAdjust="spacing" textLength="76.9082" x="2287.5" y="241.5669">implements</text></g><!--reverse link logic_arc_int__baselibs__promise to comp_arc_sta__baselibs__concurrency--><g id="link_logic_arc_int__baselibs__promise_comp_arc_sta__baselibs__concurrency"><path codeLine="35" d="M1671.1761,197.1441 C1677.0161,197.8541 1676.84,197.83 1682.5,198.5 C1956.04,231 2275.74,262.73 2459.22,280.34 " fill="transparent" id="logic_arc_int__baselibs__promise-backto-comp_arc_sta__baselibs__concurrency" style="stroke:#181818;stroke-width:1;"/><polygon fill="#181818" points="1665.22,196.42,1673.6715,201.4769,1670.1835,197.0234,1674.637,193.5354,1665.22,196.42" style="stroke:#181818;stroke-width:1;"/><text fill="#000000" font-family="sans-serif" font-size="13" lengthAdjust="spacing" textLength="76.9082" x="2090.5" y="241.5669">implements</text></g><!--link Feature_User to logic_arc_int__baselibs__intrusive_list--><g id="link_Feature_User_logic_arc_int__baselibs__intrusive_list"><path codeLine="36" d="M3202.76,49.24 C3349.46,64.62 3825.16,114.72 4218.5,158.5 C4224.52,159.17 4224.6979,159.1869 4230.8979,159.8869 " fill="transparent" id="Feature_User-to-logic_arc_int__baselibs__intrusive_list" style="stroke:#181818;stroke-width:1;"/><polygon fill="#181818" points="4236.86,160.56,4228.3656,155.5755,4231.8916,159.999,4227.4681,163.525,4236.86,160.56" style="stroke:#181818;stroke-width:1;"/><text fill="#000000" font-family="sans-serif" font-size="13" lengthAdjust="spacing" textLength="23.0103" x="3928.5" y="124.5669">use</text></g><!--reverse link logic_arc_int__baselibs__intrusive_list to comp_arc_sta__baselibs__containers--><g id="link_logic_arc_int__baselibs__intrusive_list_comp_arc_sta__baselibs__containers"><path codeLine="37" d="M4416.7506,202.1252 C4448.0406,223.4152 4493.19,254.14 4524.4,275.38 " fill="transparent" id="logic_arc_int__baselibs__intrusive_list-backto-comp_arc_sta__baselibs__containers" style="stroke:#181818;stroke-width:1;"/><polygon fill="#181818" points="4411.79,198.75,4416.9808,207.1199,4415.9238,201.5627,4421.4811,200.5058,4411.79,198.75" style="stroke:#181818;stroke-width:1;"/><text fill="#000000" font-family="sans-serif" font-size="13" lengthAdjust="spacing" textLength="76.9082" x="4479.5" y="241.5669">implements</text></g><!--link Feature_User to logic_arc_int__baselibs__json--><g id="link_Feature_User_logic_arc_int__baselibs__json"><path codeLine="38" d="M3202.53,45.4 C3423.1,49.94 4411.61,71.64 5220.5,111.5 C5536.81,127.09 5616.5,125.8 5931.5,158.5 C5937.23,159.09 5937.1216,159.0443 5943.0316,159.7443 " fill="transparent" id="Feature_User-to-logic_arc_int__baselibs__json" style="stroke:#181818;stroke-width:1;"/><polygon fill="#181818" points="5948.99,160.45,5940.523,155.4192,5944.0247,159.8619,5939.582,163.3636,5948.99,160.45" style="stroke:#181818;stroke-width:1;"/><text fill="#000000" font-family="sans-serif" font-size="13" lengthAdjust="spacing" textLength="23.0103" x="5566.5" y="124.5669">use</text></g><!--reverse link logic_arc_int__baselibs__memory_shared to comp_arc_sta__baselibs__memory_shared--><g id="link_logic_arc_int__baselibs__memory_shared_comp_arc_sta__baselibs__memory_shared"><path codeLine="39" d="M1209.5,204.75 C1209.5,225.98 1209.5,253.94 1209.5,275.19 " fill="transparent" id="logic_arc_int__baselibs__memory_shared-backto-comp_arc_sta__baselibs__memory_shared" style="stroke:#181818;stroke-width:1;"/><polygon fill="#181818" points="1209.5,198.75,1205.5,207.75,1209.5,203.75,1213.5,207.75,1209.5,198.75" style="stroke:#181818;stroke-width:1;"/><text fill="#000000" font-family="sans-serif" font-size="13" lengthAdjust="spacing" textLength="76.9082" x="1210.5" y="241.5669">implements</text></g><!--link Feature_User to logic_arc_int__baselibs__memory_shared--><g id="link_Feature_User_logic_arc_int__baselibs__memory_shared"><path codeLine="40" d="M3112.27,46.44 C2910.45,55.29 2072.1,94.22 1386.5,158.5 C1380.65,159.05 1380.6713,159.0338 1374.6613,159.6238 " fill="transparent" id="Feature_User-to-logic_arc_int__baselibs__memory_shared" style="stroke:#181818;stroke-width:1;"/><polygon fill="#181818" points="1368.69,160.21,1378.0377,163.3116,1373.6661,159.7215,1377.2561,155.3498,1368.69,160.21" style="stroke:#181818;stroke-width:1;"/><text fill="#000000" font-family="sans-serif" font-size="13" lengthAdjust="spacing" textLength="23.0103" x="1922.5" y="124.5669">use</text></g><!--link Feature_User to logic_arc_int__baselibs__utils_scoped_op--><g id="link_Feature_User_logic_arc_int__baselibs__utils_scoped_op"><path codeLine="41" d="M3202.6,45.77 C3401.15,51.45 4217.18,75.87 4886.5,111.5 C5195.21,127.93 5272.53,131.46 5580.5,158.5 C5586.47,159.02 5586.5766,159.0157 5592.7166,159.5957 " fill="transparent" id="Feature_User-to-logic_arc_int__baselibs__utils_scoped_op" style="stroke:#181818;stroke-width:1;"/><polygon fill="#181818" points="5598.69,160.16,5590.1061,155.3313,5593.7122,159.6898,5589.3537,163.2959,5598.69,160.16" style="stroke:#181818;stroke-width:1;"/><text fill="#000000" font-family="sans-serif" font-size="13" lengthAdjust="spacing" textLength="23.0103" x="5188.5" y="124.5669">use</text></g><!--link Feature_User to logic_arc_int__baselibs__future--><g id="link_Feature_User_logic_arc_int__baselibs__future"><path codeLine="42" d="M3202.57,53.85 C3307.02,75.52 3561.4151,128.3111 3700.9051,157.2511 " fill="transparent" id="Feature_User-to-logic_arc_int__baselibs__future" style="stroke:#181818;stroke-width:1;"/><polygon fill="#181818" points="3706.78,158.47,3698.7802,152.7251,3701.8843,157.4543,3697.1551,160.5583,3706.78,158.47" style="stroke:#181818;stroke-width:1;"/><text fill="#000000" font-family="sans-serif" font-size="13" lengthAdjust="spacing" textLength="23.0103" x="3555.5" y="124.5669">use</text></g><!--reverse link logic_arc_int__baselibs__bit_mask_operator to comp_arc_sta__baselibs__bit_manipulation--><g id="link_logic_arc_int__baselibs__bit_mask_operator_comp_arc_sta__baselibs__bit_manipulation"><path codeLine="43" d="M812.67,202.0055 C779.71,223.2955 731.97,254.14 699.09,275.38 " fill="transparent" id="logic_arc_int__baselibs__bit_mask_operator-backto-comp_arc_sta__baselibs__bit_manipulation" style="stroke:#181818;stroke-width:1;"/><polygon fill="#181818" points="817.71,198.75,807.9797,200.2733,813.51,201.4629,812.3203,206.9933,817.71,198.75" style="stroke:#181818;stroke-width:1;"/><text fill="#000000" font-family="sans-serif" font-size="13" lengthAdjust="spacing" textLength="76.9082" x="770.5" y="241.5669">implements</text></g><!--reverse link logic_arc_int__baselibs__bit_manipulation to comp_arc_sta__baselibs__bit_manipulation--><g id="link_logic_arc_int__baselibs__bit_manipulation_comp_arc_sta__baselibs__bit_manipulation"><path codeLine="44" d="M519.7336,201.9049 C554.1736,223.1949 604.22,254.14 638.58,275.38 " fill="transparent" id="logic_arc_int__baselibs__bit_manipulation-backto-comp_arc_sta__baselibs__bit_manipulation" style="stroke:#181818;stroke-width:1;"/><polygon fill="#181818" points="514.63,198.75,520.1821,206.8848,518.883,201.3791,524.3886,200.08,514.63,198.75" style="stroke:#181818;stroke-width:1;"/><text fill="#000000" font-family="sans-serif" font-size="13" lengthAdjust="spacing" textLength="76.9082" x="589.5" y="241.5669">implements</text></g><!--link Feature_User to logic_arc_int__baselibs__dynamic_array--><g id="link_Feature_User_logic_arc_int__baselibs__dynamic_array"><path codeLine="45" d="M3202.54,47.73 C3376.22,60.28 4019.07,107.65 4547.5,158.5 C4553.33,159.06 4553.2998,159.053 4559.2998,159.653 " fill="transparent" id="Feature_User-to-logic_arc_int__baselibs__dynamic_array" style="stroke:#181818;stroke-width:1;"/><polygon fill="#181818" points="4565.27,160.25,4556.7127,155.3743,4560.2948,159.7525,4555.9167,163.3346,4565.27,160.25" style="stroke:#181818;stroke-width:1;"/><text fill="#000000" font-family="sans-serif" font-size="13" lengthAdjust="spacing" textLength="23.0103" x="4206.5" y="124.5669">use</text></g><!--reverse link logic_arc_int__baselibs__condition_variable to comp_arc_sta__baselibs__concurrency--><g id="link_logic_arc_int__baselibs__condition_variable_comp_arc_sta__baselibs__concurrency"><path codeLine="46" d="M3060.8279,199.7824 C2959.3879,221.0724 2801.99,254.11 2700.47,275.41 " fill="transparent" id="logic_arc_int__baselibs__condition_variable-backto-comp_arc_sta__baselibs__concurrency" style="stroke:#181818;stroke-width:1;"/><polygon fill="#181818" points="3066.7,198.55,3057.0703,196.4839,3061.8066,199.577,3058.7135,204.3133,3066.7,198.55" style="stroke:#181818;stroke-width:1;"/><text fill="#000000" font-family="sans-serif" font-size="13" lengthAdjust="spacing" textLength="76.9082" x="2917.5" y="241.5669">implements</text></g><!--reverse link logic_arc_int__baselibs__task to comp_arc_sta__baselibs__concurrency--><g id="link_logic_arc_int__baselibs__task_comp_arc_sta__baselibs__concurrency"><path codeLine="47" d="M2552.7337,203.8357 C2566.0237,225.0657 2584.1,253.94 2597.41,275.19 " fill="transparent" id="logic_arc_int__baselibs__task-backto-comp_arc_sta__baselibs__concurrency" style="stroke:#181818;stroke-width:1;"/><polygon fill="#181818" points="2549.55,198.75,2550.935,208.501,2552.203,202.9881,2557.7159,204.2561,2549.55,198.75" style="stroke:#181818;stroke-width:1;"/><text fill="#000000" font-family="sans-serif" font-size="13" lengthAdjust="spacing" textLength="76.9082" x="2579.5" y="241.5669">implements</text></g><!--link Feature_User to logic_arc_int__baselibs__utils_base64--><g id="link_Feature_User_logic_arc_int__baselibs__utils_base64"><path codeLine="48" d="M3202.57,45.73 C3425.5,52.09 4432.38,83.76 5253.5,158.5 C5259.35,159.03 5259.3496,159.0049 5265.3696,159.6049 " fill="transparent" id="Feature_User-to-logic_arc_int__baselibs__utils_base64" style="stroke:#181818;stroke-width:1;"/><polygon fill="#181818" points="5271.34,160.2,5262.7811,155.3271,5266.3647,159.7041,5261.9877,163.2877,5271.34,160.2" style="stroke:#181818;stroke-width:1;"/><text fill="#000000" font-family="sans-serif" font-size="13" lengthAdjust="spacing" textLength="23.0103" x="4854.5" y="124.5669">use</text></g><!--reverse link logic_arc_int__baselibs__filesystem to comp_arc_sta__baselibs__filesystem--><g id="link_logic_arc_int__baselibs__filesystem_comp_arc_sta__baselibs__filesystem"><path codeLine="49" d="M149.5,204.75 C149.5,225.98 149.5,253.94 149.5,275.19 " fill="transparent" id="logic_arc_int__baselibs__filesystem-backto-comp_arc_sta__baselibs__filesystem" style="stroke:#181818;stroke-width:1;"/><polygon fill="#181818" points="149.5,198.75,145.5,207.75,149.5,203.75,153.5,207.75,149.5,198.75" style="stroke:#181818;stroke-width:1;"/><text fill="#000000" font-family="sans-serif" font-size="13" lengthAdjust="spacing" textLength="76.9082" x="150.5" y="241.5669">implements</text></g><!--link Feature_User to logic_arc_int__baselibs__bit_manipulation--><g id="link_Feature_User_logic_arc_int__baselibs__bit_manipulation"><path codeLine="50" d="M3112.16,45.82 C2911.69,51.75 2084.79,77.1 1406.5,111.5 C1075.6,128.28 992.65,130.56 662.5,158.5 C656.74,158.99 656.8552,158.955 650.9352,159.495 " fill="transparent" id="Feature_User-to-logic_arc_int__baselibs__bit_manipulation" style="stroke:#181818;stroke-width:1;"/><polygon fill="#181818" points="644.96,160.04,654.2861,163.2059,649.9393,159.5858,653.5594,155.239,644.96,160.04" style="stroke:#181818;stroke-width:1;"/><text fill="#000000" font-family="sans-serif" font-size="13" lengthAdjust="spacing" textLength="23.0103" x="1407.5" y="124.5669">use</text></g><!--reverse link logic_arc_int__baselibs__future to comp_arc_sta__baselibs__concurrency--><g id="link_logic_arc_int__baselibs__future_comp_arc_sta__baselibs__concurrency"><path codeLine="51" d="M3668.7766,197.1267 C3662.9566,197.8567 3663.14,197.82 3657.5,198.5 C3459.6,222.26 3409.96,226.97 3211.5,245.5 C3057.63,259.87 2881.41,273.93 2759.57,283.28 " fill="transparent" id="logic_arc_int__baselibs__future-backto-comp_arc_sta__baselibs__concurrency" style="stroke:#181818;stroke-width:1;"/><polygon fill="#181818" points="3674.73,196.38,3665.3022,193.5312,3669.7689,197.0023,3666.2978,201.469,3674.73,196.38" style="stroke:#181818;stroke-width:1;"/><text fill="#000000" font-family="sans-serif" font-size="13" lengthAdjust="spacing" textLength="76.9082" x="3391.5" y="241.5669">implements</text></g><!--link Feature_User to logic_arc_int__baselibs__task--><g id="link_Feature_User_logic_arc_int__baselibs__task"><path codeLine="52" d="M3112.41,54.17 C3010.42,76.05 2766.3366,128.4117 2632.0666,157.2117 " fill="transparent" id="Feature_User-to-logic_arc_int__baselibs__task" style="stroke:#181818;stroke-width:1;"/><polygon fill="#181818" points="2626.2,158.47,2635.8387,160.4935,2631.0888,157.4214,2634.161,152.6714,2626.2,158.47" style="stroke:#181818;stroke-width:1;"/><text fill="#000000" font-family="sans-serif" font-size="13" lengthAdjust="spacing" textLength="23.0103" x="2830.5" y="124.5669">use</text></g><!--SRC=[hLPDRzim3BthLmYzfnk6OOUXw6N0JZskPq6MsOIhFboHwkeD- - -J7MD9N2UkLHzbKq_Ku-EZjBNXbtBuWduhE3IIWwm2St2onWY6CNYnmneaCKG8t3QmNuDhk9MQEMAL64ZS4BSMRiMr9hIL_2FkqCEtO4EK4Uf-zME7vj43aVnq_L7y5JSVXZr26yvnLzz1SueWxmdYbTGaXm-g-o25CC4rIaUZYBLIbIQmM95IFobukKcRMsd35aqVWfx78LybkiQ20yyapuAPu4sA4RnfPp1ff_FLr4FgSdmRU6AqD0FRn_JhBv_NHYKJcfnoQ4w1JtZUr9TmcXWSKhvk8bYqaJKzgWYKB2_VxB9gz1PKeucoLWU02oLadGKNvqYfMwzT_olgjfYIaqkzNrOdH1McL24hr-7aSaUTcsivvIDrBzqEBs3IuU1pj8mAEqFDAncisz27d0jfpqVLs9ccUjOHTMKBY7j02zHcltK5DMkzsSNWyNUkt5E213FqxsKsGykK5bTmpubSrptXlrKLLZClOo9y1cMHU2tF6QCM9hSVQ3EzvK9iXqQUxQoZsEAaHYXBvVjgHYtkdMEpEaVBtXizDidghbTdc9cmqhV8jEYKGtXn2KOZRQMPD6LiwpPhD_MABttwPBfuvuEzpYHqxCFlciB7HLsf75DFpeLFiI6NVm00]--></g></svg>